<?xml version="1.0" encoding="UTF-8" standalone="no"?>
<!-- Created with Inkscape (http://www.inkscape.org/) -->

<svg
   width="213.38039mm"
   height="56.108345mm"
   viewBox="0 0 213.38039 56.108345"
   version="1.1"
   id="svg1"
   inkscape:version="1.3 (0e150ed, 2023-07-21)"
   sodipodi:docname="ndt-white.svg"
   xmlns:inkscape="http://www.inkscape.org/namespaces/inkscape"
   xmlns:sodipodi="http://sodipodi.sourceforge.net/DTD/sodipodi-0.dtd"
   xmlns="http://www.w3.org/2000/svg"
   xmlns:svg="http://www.w3.org/2000/svg">
  <sodipodi:namedview
     id="namedview1"
     pagecolor="#ffffff"
     bordercolor="#999999"
     borderopacity="1"
     inkscape:showpageshadow="2"
     inkscape:pageopacity="0"
     inkscape:pagecheckerboard="0"
     inkscape:deskcolor="#d1d1d1"
     inkscape:document-units="mm"
     inkscape:zoom="0.2102413"
     inkscape:cx="373.38049"
     inkscape:cy="214.03977"
     inkscape:window-width="1312"
     inkscape:window-height="449"
     inkscape:window-x="0"
     inkscape:window-y="38"
     inkscape:window-maximized="0"
     inkscape:current-layer="layer1"
     showguides="true" />
  <defs
     id="defs1">
    <clipPath
       clipPathUnits="userSpaceOnUse"
       id="clipPath40">
      <path
         d="M 0,1024 H 1280 V 0 H 0 Z"
         transform="translate(-849.74135,-732.08942)"
         id="path40" />
    </clipPath>
    <clipPath
       clipPathUnits="userSpaceOnUse"
       id="clipPath42">
      <path
         d="M 0,1024 H 1280 V 0 H 0 Z"
         transform="translate(-669.37039,-732.08942)"
         id="path42" />
    </clipPath>
    <clipPath
       clipPathUnits="userSpaceOnUse"
       id="clipPath44">
      <path
         d="M 0,1024 H 1280 V 0 H 0 Z"
         transform="translate(-920.07845,-728.66772)"
         id="path44" />
    </clipPath>
    <clipPath
       clipPathUnits="userSpaceOnUse"
       id="clipPath46">
      <path
         d="M 0,1024 H 1280 V 0 H 0 Z"
         transform="translate(-555.60011,-728.66772)"
         id="path46" />
    </clipPath>
    <clipPath
       clipPathUnits="userSpaceOnUse"
       id="clipPath48">
      <path
         d="M 0,1024 H 1280 V 0 H 0 Z"
         transform="translate(-620.29909,-714.53312)"
         id="path48" />
    </clipPath>
    <clipPath
       clipPathUnits="userSpaceOnUse"
       id="clipPath50">
      <path
         d="M 0,1024 H 1280 V 0 H 0 Z"
         transform="translate(-730.63969,-728.92522)"
         id="path50" />
    </clipPath>
    <clipPath
       clipPathUnits="userSpaceOnUse"
       id="clipPath52">
      <path
         d="M 0,1024 H 1280 V 0 H 0 Z"
         transform="translate(-824.94792,-728.92522)"
         id="path52" />
    </clipPath>
    <clipPath
       clipPathUnits="userSpaceOnUse"
       id="clipPath54">
      <path
         d="M 0,1024 H 1280 V 0 H 0 Z"
         transform="translate(-800.7893,-707.86792)"
         id="path54" />
    </clipPath>
    <clipPath
       clipPathUnits="userSpaceOnUse"
       id="clipPath56">
      <path
         d="M 0,1024 H 1280 V 0 H 0 Z"
         transform="translate(-650.30269,-741.36562)"
         id="path56" />
    </clipPath>
    <clipPath
       clipPathUnits="userSpaceOnUse"
       id="clipPath58">
      <path
         d="M 0,1024 H 1280 V 0 H 0 Z"
         transform="translate(-2.5000001e-5,-2.5000001e-5)"
         id="path58" />
    </clipPath>
    <clipPath
       clipPathUnits="userSpaceOnUse"
       id="clipPath60">
      <path
         d="M 0,1024 H 1280 V 0 H 0 Z"
         transform="translate(-2.5000001e-5,-2.5000001e-5)"
         id="path60" />
    </clipPath>
    <clipPath
       clipPathUnits="userSpaceOnUse"
       id="clipPath62">
      <path
         d="M 0,1024 H 1280 V 0 H 0 Z"
         transform="translate(-773.72779,-732.60472)"
         id="path62" />
    </clipPath>
    <clipPath
       clipPathUnits="userSpaceOnUse"
       id="clipPath64">
      <path
         d="M 0,1024 H 1280 V 0 H 0 Z"
         transform="translate(-835.0538,-749.86622)"
         id="path64" />
    </clipPath>
    <clipPath
       clipPathUnits="userSpaceOnUse"
       id="clipPath66">
      <path
         d="M 0,1024 H 1280 V 0 H 0 Z"
         transform="translate(-740.74572,-749.86622)"
         id="path66" />
    </clipPath>
    <radialGradient
       fx="0"
       fy="0"
       cx="0"
       cy="0"
       r="1"
       gradientUnits="userSpaceOnUse"
       gradientTransform="matrix(23.706619,-32.07366,32.07366,23.706619,28.951733,121.64286)"
       spreadMethod="pad"
       id="radialGradient69">
      <stop
         style="stop-opacity:1;stop-color:#c700ff"
         offset="0"
         id="stop66" />
      <stop
         style="stop-opacity:1;stop-color:#ff0063"
         offset="0.432395"
         id="stop67" />
      <stop
         style="stop-opacity:1;stop-color:#9b78ff"
         offset="0.718895"
         id="stop68" />
      <stop
         style="stop-opacity:1;stop-color:#2a78ff"
         offset="1"
         id="stop69" />
    </radialGradient>
    <radialGradient
       fx="0"
       fy="0"
       cx="0"
       cy="0"
       r="1"
       gradientUnits="userSpaceOnUse"
       gradientTransform="matrix(23.706619,-32.07366,32.07366,23.706619,28.951733,121.64286)"
       spreadMethod="pad"
       id="radialGradient73">
      <stop
         style="stop-opacity:1;stop-color:#c700ff"
         offset="0"
         id="stop70" />
      <stop
         style="stop-opacity:1;stop-color:#ff0063"
         offset="0.432395"
         id="stop71" />
      <stop
         style="stop-opacity:1;stop-color:#9b78ff"
         offset="0.718895"
         id="stop72" />
      <stop
         style="stop-opacity:1;stop-color:#2a78ff"
         offset="1"
         id="stop73" />
    </radialGradient>
    <radialGradient
       fx="0"
       fy="0"
       cx="0"
       cy="0"
       r="1"
       gradientUnits="userSpaceOnUse"
       gradientTransform="matrix(23.706619,-32.07366,32.07366,23.706619,28.951733,121.64286)"
       spreadMethod="pad"
       id="radialGradient77">
      <stop
         style="stop-opacity:1;stop-color:#c700ff"
         offset="0"
         id="stop74" />
      <stop
         style="stop-opacity:1;stop-color:#ff0063"
         offset="0.432395"
         id="stop75" />
      <stop
         style="stop-opacity:1;stop-color:#9b78ff"
         offset="0.718895"
         id="stop76" />
      <stop
         style="stop-opacity:1;stop-color:#2a78ff"
         offset="1"
         id="stop77" />
    </radialGradient>
    <radialGradient
       fx="0"
       fy="0"
       cx="0"
       cy="0"
       r="1"
       gradientUnits="userSpaceOnUse"
       gradientTransform="matrix(23.706619,-32.07366,32.07366,23.706619,28.951733,121.64286)"
       spreadMethod="pad"
       id="radialGradient81">
      <stop
         style="stop-opacity:1;stop-color:#c700ff"
         offset="0"
         id="stop78" />
      <stop
         style="stop-opacity:1;stop-color:#ff0063"
         offset="0.432395"
         id="stop79" />
      <stop
         style="stop-opacity:1;stop-color:#9b78ff"
         offset="0.718895"
         id="stop80" />
      <stop
         style="stop-opacity:1;stop-color:#2a78ff"
         offset="1"
         id="stop81" />
    </radialGradient>
    <radialGradient
       fx="0"
       fy="0"
       cx="0"
       cy="0"
       r="1"
       gradientUnits="userSpaceOnUse"
       gradientTransform="matrix(23.706619,-32.07366,32.07366,23.706619,28.951733,121.64286)"
       spreadMethod="pad"
       id="radialGradient85">
      <stop
         style="stop-opacity:1;stop-color:#c700ff"
         offset="0"
         id="stop82" />
      <stop
         style="stop-opacity:1;stop-color:#ff0063"
         offset="0.432395"
         id="stop83" />
      <stop
         style="stop-opacity:1;stop-color:#9b78ff"
         offset="0.718895"
         id="stop84" />
      <stop
         style="stop-opacity:1;stop-color:#2a78ff"
         offset="1"
         id="stop85" />
    </radialGradient>
    <clipPath
       clipPathUnits="userSpaceOnUse"
       id="clipPath87">
      <path
         d="M 0,1024 H 1280 V 0 H 0 Z"
         transform="translate(-585.67324,-764.93902)"
         id="path87" />
    </clipPath>
    <clipPath
       clipPathUnits="userSpaceOnUse"
       id="clipPath89">
      <path
         d="M 0,1024 H 1280 V 0 H 0 Z"
         transform="translate(-742.02372,-787.28452)"
         id="path89" />
    </clipPath>
    <clipPath
       clipPathUnits="userSpaceOnUse"
       id="clipPath91">
      <path
         d="M 0,1024 H 1280 V 0 H 0 Z"
         transform="translate(-717.34392,-777.04962)"
         id="path91" />
    </clipPath>
    <clipPath
       clipPathUnits="userSpaceOnUse"
       id="clipPath93">
      <path
         d="M 0,1024 H 1280 V 0 H 0 Z"
         transform="translate(-841.76622,-773.15002)"
         id="path93" />
    </clipPath>
    <clipPath
       clipPathUnits="userSpaceOnUse"
       id="clipPath95">
      <path
         d="M 0,1024 H 1280 V 0 H 0 Z"
         transform="translate(-622.48684,-773.15002)"
         id="path95" />
    </clipPath>
    <clipPath
       clipPathUnits="userSpaceOnUse"
       id="clipPath97">
      <path
         d="M 0,1024 H 1280 V 0 H 0 Z"
         transform="translate(-796.70712,-790.70622)"
         id="path97" />
    </clipPath>
    <clipPath
       clipPathUnits="userSpaceOnUse"
       id="clipPath99">
      <path
         d="M 0,1024 H 1280 V 0 H 0 Z"
         transform="translate(-687.96919,-790.70622)"
         id="path99" />
    </clipPath>
    <clipPath
       clipPathUnits="userSpaceOnUse"
       id="clipPath101">
      <path
         d="M 0,1024 H 1280 V 0 H 0 Z"
         transform="translate(-654.98719,-791.22162)"
         id="path101" />
    </clipPath>
    <clipPath
       clipPathUnits="userSpaceOnUse"
       id="clipPath103">
      <path
         d="M 0,1024 H 1280 V 0 H 0 Z"
         transform="translate(-809.5907,-758.49712)"
         id="path103" />
    </clipPath>
    <clipPath
       clipPathUnits="userSpaceOnUse"
       id="clipPath105">
      <path
         d="M 0,1024 H 1280 V 0 H 0 Z"
         transform="translate(-2.5000001e-5,-2.5000001e-5)"
         id="path105" />
    </clipPath>
    <clipPath
       clipPathUnits="userSpaceOnUse"
       id="clipPath107">
      <path
         d="M 0,1024 H 1280 V 0 H 0 Z"
         transform="translate(-2.5000001e-5,-2.5000001e-5)"
         id="path107" />
    </clipPath>
  </defs>
  <g
     inkscape:label="Layer 1"
     inkscape:groupmode="layer"
     id="layer1"
     transform="translate(-6.7281449,-91.556359)">
    <path
       id="path39"
       d="m 0,0 8.635,-26.027 8.876,25.909 3.905,-0.035 8.729,-25.872 8.528,25.616 c 0.599,0.826 2.842,0.239 3.843,0.408 l -10.59,-32.182 -4.127,0.123 -8.219,26.133 -9.134,-26.3 -3.721,0.044 L -3.865,0 Z"
       style="fill:#ffffff;fill-opacity:1;fill-rule:nonzero;stroke:none"
       transform="matrix(0.35277776,0,0,-0.35277776,184.45798,127.29754)"
       clip-path="url(#clipPath40)" />
    <path
       id="path41"
       d="m 0,0 8.635,-26.027 8.876,25.909 3.905,-0.035 8.729,-25.872 8.528,25.616 c 0.599,0.826 2.842,0.239 3.844,0.408 L 31.926,-32.183 27.799,-32.06 19.58,-5.927 10.446,-32.227 6.725,-32.183 -3.865,0 Z"
       style="fill:#ffffff;fill-opacity:1;fill-rule:nonzero;stroke:none"
       transform="matrix(0.35277776,0,0,-0.35277776,120.82711,127.29754)"
       clip-path="url(#clipPath42)" />
    <path
       id="path43"
       d="M 0,0 C -12.702,-1.531 -12.086,-23.803 -0.521,-25.371 17.498,-27.814 17.826,2.148 0,0 M -9.735,-2.634 C -9.72,-2.738 -9.481,-3.371 -9.223,-3.276 -4.18,7.168 11.228,5.595 15.819,-4.651 22.854,-20.354 6.01,-37.831 -7.667,-24.53 l -1.553,2.442 v -22.16 h -4.122 v 47.67 h 3.607 c 0.187,-1.893 -0.253,-4.223 0,-6.056"
       style="fill:#ffffff;fill-opacity:1;fill-rule:nonzero;stroke:none"
       transform="matrix(0.35277776,0,0,-0.35277776,209.27134,128.50464)"
       clip-path="url(#clipPath44)" />
    <path
       id="path45"
       d="M 0,0 C -15.041,-1.816 -11.829,-29.86 5.347,-24.93 16.865,-21.624 15.708,1.896 0,0 m 16.805,19.655 v -48.442 l -3.35,-0.002 -0.26,6.958 -1.806,-2.699 c -9.118,-9.48 -23.274,-3.684 -24.957,9.044 -2.007,15.178 11.102,25.041 23.905,15.66 l 2.603,-3.709 v 23.19 z"
       style="fill:#ffffff;fill-opacity:1;fill-rule:nonzero;stroke:none"
       transform="matrix(0.35277776,0,0,-0.35277776,80.691493,128.50464)"
       clip-path="url(#clipPath46)" />
    <path
       id="path47"
       d="m 0,0 c -4.992,1.434 -19.012,2.57 -19.558,-4.995 -0.649,-8.979 16.03,-8.299 18.864,-2.102 C 0.302,-4.917 0.024,-2.33 0,0 m 8.538,-11.56 v -3.094 c -3.628,-0.194 -7.412,0.401 -7.992,4.637 l -1.678,-1.796 c -6.089,-4.929 -21.275,-4.782 -22.251,5.051 -1.189,11.977 15.816,12.036 23.673,9.89 -0.316,3.931 0.042,7.724 -3.787,9.996 -5.189,3.081 -13.337,0.771 -17.47,-3.294 l -1.815,2.835 c 4.789,4.394 11.559,6.144 17.929,4.771 C 7.783,14.714 3.279,0.63 4.146,-8.607 c 0.256,-2.725 1.912,-3.059 4.392,-2.953"
       style="fill:#ffffff;fill-opacity:1;fill-rule:nonzero;stroke:none"
       transform="matrix(0.35277776,0,0,-0.35277776,103.51585,133.49101)"
       clip-path="url(#clipPath48)" />
    <path
       id="path49"
       d="m 0,0 c -14.976,-1.812 -14.056,-28.035 4.023,-25.925 9.3,1.085 12.352,12.815 8.353,20.151 C 9.953,-1.329 4.91,0.594 0,0 m -0.254,3.346 c 12.739,1.241 20.722,-8.555 18.014,-20.848 -3.463,-15.72 -27.843,-15.924 -31.749,-0.465 -2.594,10.266 2.748,20.243 13.735,21.313"
       style="fill:#ffffff;fill-opacity:1;fill-rule:nonzero;stroke:none"
       transform="matrix(0.35277776,0,0,-0.35277776,142.44156,128.4138)"
       clip-path="url(#clipPath50)" />
    <path
       id="path51"
       d="m 0,0 c -14.975,-1.812 -14.056,-28.035 4.023,-25.925 9.3,1.085 12.352,12.815 8.353,20.151 C 9.953,-1.329 4.91,0.594 0,0 m -0.254,3.346 c 12.739,1.241 20.722,-8.555 18.014,-20.848 -3.463,-15.72 -27.843,-15.924 -31.749,-0.465 -2.594,10.266 2.748,20.243 13.735,21.313"
       style="fill:#ffffff;fill-opacity:1;fill-rule:nonzero;stroke:none"
       transform="matrix(0.35277776,0,0,-0.35277776,175.71141,128.4138)"
       clip-path="url(#clipPath52)" />
    <path
       id="path53"
       d="M 0,0 C 1.173,-0.987 3.496,-1.576 2.31,-3.22 -1.263,-8.171 -9.962,-9.435 -15.346,-7.223 -32.063,-0.357 -25.165,30 -4.384,23.837 -2.576,23.301 2.227,20.663 2.73,18.817 2.931,18.082 0.779,16.772 0.119,16.283 -2.927,20.29 -8.358,21.783 -13.136,20.216 -23.527,16.809 -23.199,-1.641 -12.382,-4.26 -8.053,-5.308 -2.367,-3.957 0,0"
       style="fill:#ffffff;fill-opacity:1;fill-rule:nonzero;stroke:none"
       transform="matrix(0.35277776,0,0,-0.35277776,167.18878,135.84235)"
       clip-path="url(#clipPath54)" />
    <path
       id="path55"
       d="m 0,0 v -8.761 h 9.276 v -3.607 H 0 v -21.774 c 0,-0.361 0.741,-2.186 1.029,-2.578 1.951,-2.652 6.804,-1.049 9.275,0.13 -0.027,-3.203 0.766,-3.662 -2.461,-4.622 -3.982,-1.185 -9.232,-1.017 -11.061,3.337 -0.298,0.709 -0.905,3.06 -0.905,3.733 v 21.774 h -4.638 v 3.607 h 4.638 L -3.607,0 Z"
       style="fill:#ffffff;fill-opacity:1;fill-rule:nonzero;stroke:none"
       transform="matrix(0.35277776,0,0,-0.35277776,114.10045,124.0251)"
       clip-path="url(#clipPath56)" />
    <path
       id="path57"
       d="m 950.798,699.88 h -4.123 v 48.442 h 4.123 z"
       style="fill:#ffffff;fill-opacity:1;fill-rule:nonzero;stroke:none"
       transform="matrix(0.35277776,0,0,-0.35277776,-115.31186,385.5624)"
       clip-path="url(#clipPath58)" />
    <path
       id="path59"
       d="m 588.124,699.88 h -4.123 v 48.442 h 4.123 z"
       style="fill:#ffffff;fill-opacity:1;fill-rule:nonzero;stroke:none"
       transform="matrix(0.35277776,0,0,-0.35277776,-115.31186,385.5624)"
       clip-path="url(#clipPath60)" />
    <path
       id="path61"
       d="m 0,0 v -4.123 c -3.621,0.218 -7.699,-0.779 -9.904,-3.881 -0.262,-0.369 -1.691,-3.229 -1.691,-3.462 v -21.258 h -4.123 v 32.209 h 3.607 c 0.346,-1.758 0.167,-3.521 0.258,-5.287 0.015,-0.291 -0.168,-0.708 0.254,-0.638 C -9.51,-1.812 -4.822,-0.065 0,0"
       style="fill:#ffffff;fill-opacity:1;fill-rule:nonzero;stroke:none"
       transform="matrix(0.35277776,0,0,-0.35277776,157.64209,127.11575)"
       clip-path="url(#clipPath62)" />
    <path
       id="path63"
       d="m 0,0 -7.071,-9.546 c -0.609,-0.772 -1.601,-0.462 -2.462,-0.499 l 5.794,9.793 z"
       style="fill:#ffffff;fill-opacity:1;fill-rule:nonzero;stroke:none"
       transform="matrix(0.35277776,0,0,-0.35277776,179.27654,121.02628)"
       clip-path="url(#clipPath64)" />
    <path
       id="path65"
       d="m 0,0 -7.071,-9.546 c -0.609,-0.772 -1.601,-0.462 -2.462,-0.499 l 5.794,9.793 z"
       style="fill:#ffffff;fill-opacity:1;fill-rule:nonzero;stroke:none"
       transform="matrix(0.35277776,0,0,-0.35277776,146.00675,121.02628)"
       clip-path="url(#clipPath66)" />
    <path
       id="path69"
       d="m 54.685393,111.21419 c -0.07373,0.16934 -0.159103,0.33126 -0.253648,0.48472 v 0 c -0.05785,0.0942 -0.119239,0.18556 -0.183444,0.27305 v 0 c -0.168275,0.23001 -0.354542,0.43674 -0.549628,0.61912 v 0 c -0.195439,0.18204 -0.398639,0.3422 -0.605014,0.48649 v 0 c -0.206375,0.14393 -0.415925,0.26775 -0.626533,0.38241 v 0 c -0.210608,0.11289 -0.421569,0.21272 -0.632883,0.30409 v 0 c -0.846667,0.35878 -1.690864,0.57573 -2.526595,0.73131 v 0 c -0.836083,0.15452 -1.665816,0.24342 -2.490611,0.29175 v 0 c -0.824441,0.0483 -1.643944,0.0557 -2.459566,0.0335 v 0 c -1.630186,-0.0462 -3.243086,-0.21132 -4.839758,-0.46567 v 0 c -1.595966,-0.25611 -3.175705,-0.60501 -4.732866,-1.04775 v 0 c -0.24765,-0.0709 -0.494948,-0.14428 -0.741539,-0.21978 v 0 c -0.344664,-0.10583 -0.688622,-0.2166 -1.030817,-0.33267 v 0 c 0.192617,0.30339 0.389467,0.60431 0.566209,0.91687 v 0 c 0.01058,0.0187 0.02152,0.037 0.03175,0.0557 v 0 l 0.155222,0.26811 0.07691,0.13406 c 0.02611,0.0448 0.04868,0.0907 0.07303,0.13617 v 0 l 0.287161,0.54716 0.07126,0.13688 c 0.02328,0.0462 0.04445,0.0931 0.06668,0.13935 v 0 l 0.132292,0.27904 0.131586,0.2787 0.06597,0.1397 c 0.02187,0.0462 0.04057,0.0938 0.06068,0.14111 v 0 c 0.159103,0.37853 0.327378,0.75388 0.465666,1.13947 v 0 c 0.07126,0.19191 0.146403,0.38312 0.214489,0.57573 v 0 l 0.193675,0.58244 0.09666,0.29104 c 0.02963,0.0977 0.0575,0.19579 0.08608,0.29386 v 0 l 0.170039,0.58844 c 0.02999,0.0977 0.05327,0.19685 0.07796,0.29563 v 0 l 0.07338,0.29668 c 0.04762,0.19791 0.100541,0.39511 0.144286,0.59373 v 0 l 0.124178,0.5969 0.06174,0.2988 c 0.02222,0.0995 0.03528,0.19967 0.05327,0.29986 v 0 l 0.101952,0.60008 c 0.01588,0.10018 0.03563,0.20002 0.04833,0.30021 v 0 l 0.03986,0.30127 0.07938,0.60255 0.0194,0.15028 0.01411,0.15099 0.02893,0.30198 0.0575,0.6036 c 0.01693,0.20108 0.02575,0.40252 0.03881,0.6036 v 0 l 0.03598,0.60431 0.01658,0.6036 0.02858,1.15888 c 0.0028,0.0921 0.0028,0.18521 0.0081,0.27658 v 0 l 0.01517,0.27481 0.01446,0.27481 c 0.0028,0.0459 0.0046,0.0917 0.0081,0.13723 v 0 l 0.01199,0.13618 0.04798,0.54363 0.06597,0.53763 c 0.09948,0.71191 0.240948,1.40794 0.443442,2.0641 v 0 c 0.04621,0.16687 0.107597,0.3235 0.163689,0.48331 v 0 l 0.04233,0.11959 c 0.01552,0.0392 0.0321,0.0765 0.04833,0.11501 v 0 l 0.09666,0.23001 c 0.02963,0.0787 0.06985,0.14852 0.104775,0.22225 v 0 l 0.107597,0.21942 0.118886,0.20814 0.05891,0.10443 c 0.02011,0.0342 0.04269,0.0653 0.06421,0.0984 v 0 l 0.128764,0.19614 c 0.0441,0.0639 0.09278,0.12241 0.138289,0.18415 v 0 l 0.0695,0.0917 c 0.02293,0.031 0.04939,0.0568 0.07373,0.0857 v 0 l 0.148519,0.17004 c 0.208492,0.21131 0.428273,0.40534 0.667103,0.56868 v 0 c 0.241653,0.15875 0.498122,0.29315 0.769761,0.40252 v 0 c 0.275167,0.10265 0.565503,0.17991 0.867481,0.23389 v 0 c 0.303389,0.0505 0.620536,0.0713 0.942975,0.0748 v 0 c 0.32385,-0.001 0.655108,-0.0272 0.988836,-0.0684 v 0 c 0.668514,-0.0938 1.348316,-0.25682 2.020711,-0.48401 v 0 c 0.337255,-0.10901 0.671336,-0.2406 1.004711,-0.3743 v 0 c 0.331611,-0.14076 0.663222,-0.28469 0.989542,-0.44591 v 0 c 0.526344,-0.254 1.043869,-0.53517 1.551516,-0.83644 v 0 c 0.123825,-0.0734 0.24765,-0.14711 0.370417,-0.22295 v 0 c 0.626533,-0.38418 1.234369,-0.80363 1.823861,-1.24355 v 0 c 0.586669,-0.44273 1.154994,-0.90946 1.685219,-1.40123 v 0 c 0.264584,-0.24588 0.520347,-0.49741 0.760589,-0.75318 v 0 c 0.239183,-0.25576 0.462492,-0.51717 0.651228,-0.77223 v 0 c 0.164394,-0.19085 0.246944,-0.29351 0.546805,-0.73095 v 0 c 0.921809,-1.34197 1.717675,-2.75661 2.262011,-4.25168 v 0 c 0.545395,-1.49261 0.845256,-3.05541 0.845256,-4.61927 v 0 c 0,-1.56352 -0.299861,-3.12632 -0.845256,-4.61928 v 0 c -0.419452,-1.15217 -0.980722,-2.26201 -1.643944,-3.32069 v 0 c -0.148159,-0.23636 -0.301264,-0.47026 -0.459309,-0.70132 v 0 c -0.02893,0.0829 -0.06068,0.16474 -0.0956,0.24482 m -7.827435,4.26791 c 0.848077,-0.0504 1.704622,-0.14147 2.576336,-0.30233 v 0 c 0.871713,-0.16299 1.759655,-0.38947 2.673349,-0.77611 v 0 c 0.2286,-0.0988 0.458259,-0.20708 0.688975,-0.33091 v 0 c 0.231423,-0.12594 0.462845,-0.26282 0.693914,-0.42368 v 0 c 0.230717,-0.16122 0.460728,-0.3422 0.684036,-0.55034 v 0 c 0.222956,-0.20849 0.438856,-0.44767 0.635353,-0.71578 v 0 c 0.0092,-0.0127 0.0187,-0.0258 0.02787,-0.0388 v 0 c 0.5588,0.92921 1.031874,1.89371 1.392766,2.88501 v 0 c 0.5207,1.42558 0.802922,2.90477 0.803275,4.3815 v 0 c -3.53e-4,1.47673 -0.282575,2.95593 -0.803275,4.3815 v 0 c -0.519289,1.42699 -1.271411,2.79823 -2.176991,4.08905 v 0 c -0.171098,0.24482 -0.348898,0.48612 -0.531637,0.7246 v 0 l -0.606072,0.70379 c -0.226483,0.2413 -0.471311,0.48189 -0.725311,0.7179 v 0 c -0.509411,0.47273 -1.060802,0.92569 -1.630186,1.35538 v 0 c -0.572558,0.42721 -1.163108,0.83502 -1.771297,1.20755 v 0 c -0.60713,0.3743 -1.228372,0.72108 -1.859844,1.02553 v 0 c -0.315031,0.15557 -0.633589,0.29386 -0.951795,0.42898 v 0 c -0.319264,0.12805 -0.63888,0.25364 -0.958849,0.35701 v 0 c -0.638881,0.21625 -1.277409,0.3683 -1.893006,0.45473 v 0 c -0.306564,0.0377 -0.607483,0.0614 -0.897114,0.0624 v 0 c -0.287513,-0.004 -0.566561,-0.0215 -0.826911,-0.0656 v 0 c -0.259644,-0.0466 -0.503766,-0.11147 -0.732014,-0.19649 v 0 c -0.224366,-0.0907 -0.433211,-0.20073 -0.631119,-0.32985 v 0 c -0.195086,-0.1337 -0.375708,-0.29351 -0.551039,-0.47025 v 0 c -0.04092,-0.048 -0.0829,-0.096 -0.124883,-0.14358 v 0 c -0.02081,-0.0247 -0.04374,-0.0459 -0.06279,-0.0723 v 0 l -0.05927,-0.079 c -0.03916,-0.0533 -0.08114,-0.10266 -0.119239,-0.15805 v 0 l -0.112183,-0.1711 c -0.01834,-0.0289 -0.03881,-0.0557 -0.05609,-0.0861 v 0 l -0.05221,-0.0928 -0.105834,-0.1838 -0.09596,-0.1972 c -0.0314,-0.0667 -0.06773,-0.12841 -0.09454,-0.20073 v 0 l -0.08819,-0.20955 c -0.01446,-0.0349 -0.02963,-0.0688 -0.0441,-0.10477 v 0 l -0.03881,-0.11007 c -0.0515,-0.14746 -0.108303,-0.29069 -0.150989,-0.44732 v 0 c -0.188736,-0.61066 -0.32385,-1.27071 -0.4191,-1.95263 v 0 l -0.0635,-0.51611 -0.04621,-0.52493 -0.01164,-0.13124 c -0.0035,-0.0441 -0.0049,-0.0889 -0.0074,-0.13299 v 0 l -0.01446,-0.26635 -0.01446,-0.26635 c -0.0053,-0.0885 -0.0049,-0.17956 -0.0078,-0.26881 v 0 l -0.02857,-1.15676 -0.01729,-0.6156 -0.03634,-0.61666 c -0.01376,-0.20531 -0.02293,-0.41098 -0.03986,-0.6163 v 0 l -0.05856,-0.61665 -0.02963,-0.30833 -0.01482,-0.15417 -0.01976,-0.15381 -0.08079,-0.6163 -0.04092,-0.30797 c -0.01305,-0.10266 -0.03316,-0.20497 -0.04939,-0.30727 v 0 l -0.10407,-0.61454 c -0.01834,-0.10231 -0.0321,-0.20497 -0.05503,-0.30692 v 0 l -0.06315,-0.30586 -0.127353,-0.61207 c -0.0448,-0.20355 -0.09878,-0.40604 -0.147814,-0.60924 v 0 l -0.07585,-0.3041 c -0.02505,-0.10125 -0.04904,-0.20285 -0.07937,-0.30303 v 0 l -0.174625,-0.60431 c -0.02963,-0.10054 -0.05786,-0.20144 -0.08855,-0.30163 v 0 l -0.09913,-0.29951 -0.199319,-0.59831 c -0.06985,-0.19861 -0.146756,-0.39511 -0.220486,-0.59266 v 0 c -0.14217,-0.39617 -0.315384,-0.78317 -0.479073,-1.17228 v 0 c -0.02117,-0.0487 -0.04057,-0.0977 -0.06279,-0.1457 v 0 l -0.06809,-0.14393 -0.135467,-0.28717 -0.136172,-0.28751 c -0.02293,-0.0476 -0.0448,-0.096 -0.06879,-0.14323 v 0 l -0.07373,-0.14111 -0.28187,-0.53728 c 0.01799,0.005 0.03528,0.0102 0.05327,0.0152 v 0 c 1.584325,0.4512 3.189816,0.80539 4.813299,1.06574 v 0 c 1.623836,0.25894 3.265311,0.42722 4.930775,0.47414 v 0 c 0.29457,0.008 0.590197,0.0124 0.886531,0.0124 v 0 c 0.54116,0 1.085144,-0.0145 1.633008,-0.0462"
       style="fill:#ffffff;stroke:none;stroke-width:0.352778" />
    <path
       id="path73"
       d="m 21.87565,93.208421 c -0.873125,0.01517 -1.747661,0.07126 -2.61867,0.185208 v 0 c -0.870302,0.115006 -1.736372,0.294217 -2.583391,0.551744 v 0 c -0.422275,0.132998 -0.841728,0.2794 -1.248833,0.459317 v 0 c -0.206023,0.08396 -0.404636,0.185914 -0.60572,0.281164 v 0 l -0.295275,0.157339 c -0.04904,0.02716 -0.09913,0.0515 -0.146755,0.08043 v 0 l -0.143934,0.08572 -0.143933,0.08573 -0.07197,0.04269 -0.0702,0.04621 -0.280106,0.184503 c -0.181328,0.130528 -0.36583,0.258233 -0.538339,0.401461 v 0 c -0.177447,0.136525 -0.3429,0.287867 -0.510469,0.436386 v 0 l -0.241653,0.233186 c -0.04092,0.03845 -0.07973,0.07867 -0.117828,0.119945 v 0 l -0.115005,0.122061 c -0.614539,0.652639 -1.124303,1.395589 -1.543403,2.179461 v 0 c -0.206375,0.393347 -0.394406,0.795161 -0.560211,1.205444 v 0 c -0.162983,0.41098 -0.312561,0.8262 -0.440267,1.24742 v 0 c -0.127353,0.42086 -0.243769,0.8449 -0.341136,1.27211 v 0 c -0.05221,0.21308 -0.09419,0.42792 -0.140405,0.6417 v 0 c -0.02222,0.10725 -0.04127,0.21485 -0.06209,0.32209 v 0 c -0.02046,0.1076 -0.04127,0.21449 -0.05891,0.32244 v 0 c -0.281164,1.61184 -0.419806,3.23497 -0.503414,4.85563 v 0 c -0.0056,0.11113 -0.01129,0.2219 -0.01658,0.33302 v 0 c -0.0187,0.41134 -0.03351,0.82198 -0.04586,1.23261 v 0 c -0.04022,1.31974 -0.0508,2.63807 -0.05433,3.95499 v 0 l 0.0028,5.17419 c -0.0021,1.72403 -0.01023,3.44946 0.0067,5.17772 v 0 c 0.01729,1.72791 0.05856,3.45828 0.169333,5.18901 v 0 c 0.05539,0.86536 0.128764,1.73073 0.228953,2.59468 v 0 c 0.101247,0.8636 0.230011,1.72579 0.397227,2.58304 v 0 c 0.165806,0.8569 0.378884,1.7078 0.64382,2.54494 v 0 c 0.03175,0.10548 0.06879,0.20884 0.104069,0.31326 v 0 c 0.03598,0.10372 0.06914,0.2085 0.10795,0.31115 v 0 c 0.07691,0.20638 0.150989,0.41346 0.237067,0.61701 v 0 c 0.163336,0.40923 0.350661,0.81033 0.552803,1.20403 v 0 l 0.155575,0.29316 c 0.05362,0.0974 0.110419,0.19262 0.165805,0.28893 v 0 l 0.08326,0.14358 0.08925,0.14111 c 0.05962,0.0931 0.117122,0.18873 0.178858,0.28081 v 0 c 0.246944,0.37006 0.516819,0.72496 0.804686,1.06609 v 0 c 0.293511,0.33585 0.604308,0.65758 0.93733,0.95533 v 0 c 0.0829,0.0751 0.170392,0.14499 0.255059,0.21766 v 0 l 0.128411,0.10795 0.132997,0.10195 c 0.0889,0.0674 0.176389,0.13723 0.267053,0.2025 v 0 l 0.275166,0.19085 c 0.372181,0.24659 0.75565,0.47731 1.156406,0.67239 v 0 c 0.197203,0.10407 0.402519,0.18909 0.605014,0.28152 v 0 c 0.101953,0.0445 0.206375,0.0829 0.309386,0.12453 v 0 c 0.103364,0.0406 0.206022,0.0833 0.311503,0.11783 v 0 c 0.83573,0.29845 1.698625,0.51047 2.568575,0.64735 v 0 c 0.870655,0.13546 1.747308,0.20284 2.622902,0.22084 v 0 c 0.875242,0.0173 1.747308,-0.0116 2.617258,-0.0748 v 0 c 1.739195,-0.12806 3.462162,-0.39758 5.162198,-0.75883 v 0 c 0.850194,-0.18239 1.693333,-0.39194 2.53118,-0.62124 v 0 c 0.208845,-0.0589 0.4191,-0.1136 0.627239,-0.17604 v 0 l 0.624417,-0.18415 c 0.414513,-0.12947 0.829733,-0.25682 1.240719,-0.39546 v 0 c 1.648906,-0.54504 3.267803,-1.17686 4.854598,-1.88066 v 0 c 0.792691,-0.35418 1.576564,-0.72601 2.352322,-1.11583 v 0 c 0.773994,-0.39335 1.539169,-0.80433 2.293761,-1.23366 v 0 c 0.610658,-0.34961 1.214261,-0.71226 1.810455,-1.08762 v 0 c 0.874183,-0.55068 1.73108,-1.12889 2.5654,-1.74025 v 0 c 0.07832,-0.0564 0.155928,-0.11395 0.233892,-0.17145 v 0 c 0.271286,-0.20108 0.539397,-0.40781 0.807861,-0.61348 v 0 l 0.510469,-0.40675 c 0.170392,-0.13477 0.335492,-0.27658 0.503414,-0.41487 v 0 c 0.667103,-0.55915 1.316919,-1.13947 1.9431,-1.74555 v 0 c 0.624064,-0.60818 1.22555,-1.24072 1.798108,-1.90041 v 0 c 0.571147,-0.65969 1.117247,-1.34302 1.618897,-2.06057 v 0 c 1.004711,-1.43193 1.859844,-2.98133 2.462742,-4.63692 v 0 c 0.301272,-0.82691 0.538691,-1.67922 0.699205,-2.5474 v 0 c 0.160867,-0.86748 0.244475,-1.75119 0.245534,-2.63525 v 0 c -0.0011,-0.88406 -0.08467,-1.76742 -0.245534,-2.63561 v 0 c -0.160514,-0.86783 -0.397933,-1.72014 -0.699205,-2.5467 v 0 c -0.602898,-1.65558 -1.458031,-3.20534 -2.462742,-4.63691 v 0 c -0.09349,-0.13335 -0.188736,-0.26529 -0.284692,-0.39652 v 0 c -0.300919,-0.40958 -0.614891,-0.80857 -0.939094,-1.19874 v 0 c -0.130528,-0.15663 -0.262114,-0.31186 -0.395111,-0.46567 v 0 c -0.572558,-0.65934 -1.174044,-1.29187 -1.798108,-1.90006 v 0 c -0.626181,-0.60642 -1.275997,-1.1871 -1.9431,-1.7459 v 0 c -0.167922,-0.13793 -0.333022,-0.2801 -0.503414,-0.41486 v 0 l -0.510469,-0.40675 c -0.34537,-0.26459 -0.688975,-0.53058 -1.041753,-0.78494 v 0 C 47.151823,101.45 45.685326,100.51338 44.178613,99.650133 v 0 c -0.754592,-0.429331 -1.519767,-0.840317 -2.293761,-1.233311 v 0 c -0.775758,-0.390173 -1.559631,-0.762 -2.352322,-1.116189 v 0 c -1.586795,-0.703782 -3.205692,-1.335254 -4.854575,-1.880648 v 0 C 34.266969,95.281343 33.851749,95.15399 33.437236,95.024521 v 0 L 32.812819,94.840723 C 32.60468,94.777933 32.394425,94.723601 32.18558,94.664335 v 0 C 31.347733,94.435382 30.504594,94.225832 29.6544,94.043446 v 0 c -1.700036,-0.361245 -3.423003,-0.63112 -5.162198,-0.759178 v 0 c -0.713669,-0.05221 -1.430513,-0.07973 -2.147711,-0.07973 v 0 c -0.15628,0 -0.312561,0.0011 -0.468841,0.0039 M 9.172123,109.09296 c 0.0025,-0.0473 0.0049,-0.0949 0.0071,-0.14182 v 0 c 0.02081,-0.42157 0.0448,-0.84243 0.07408,-1.26294 v 0 c 0.08643,-1.24178 0.216605,-2.47721 0.42933,-3.6957 v 0 c 0.01693,-0.10513 0.03775,-0.20955 0.0575,-0.31398 v 0 c 0.01975,-0.10407 0.03845,-0.20884 0.06033,-0.31256 v 0 c 0.04445,-0.20778 0.08537,-0.41627 0.135819,-0.62194 v 0 c 0.09384,-0.41346 0.206375,-0.82198 0.328436,-1.22591 v 0 c 0.122414,-0.40428 0.265995,-0.80045 0.420511,-1.19097 v 0 c 0.156987,-0.389466 0.335139,-0.769408 0.529167,-1.139472 v 0 c 0.394053,-0.736247 0.868892,-1.427339 1.437217,-2.031294 v 0 l 0.106539,-0.112536 c 0.03563,-0.0381 0.07126,-0.07549 0.109008,-0.110773 v 0 l 0.223661,-0.2159 c 0.155222,-0.13723 0.307622,-0.277636 0.472369,-0.403577 v 0 c 0.159103,-0.132645 0.3302,-0.250473 0.498123,-0.372181 v 0 l 0.259997,-0.171097 0.06491,-0.04269 0.06703,-0.03986 0.134055,-0.07973 0.134056,-0.07973 c 0.0441,-0.02681 0.09102,-0.04974 0.136878,-0.07479 v 0 l 0.275166,-0.147108 c 0.188384,-0.0889 0.373592,-0.184503 0.567267,-0.263172 v 0 c 0.381705,-0.168981 0.777875,-0.306564 1.177572,-0.432858 v 0 c 0.802922,-0.244123 1.631597,-0.415925 2.47015,-0.527403 v 0 c 0.839611,-0.109714 1.688747,-0.164395 2.539647,-0.178859 v 0 c 0.8509,-0.01446 1.702505,0.01199 2.553053,0.07408 v 0 c 1.701447,0.125236 3.394075,0.390172 5.0673,0.745772 v 0 c 0.836436,0.178858 1.667227,0.385586 2.492727,0.611364 v 0 c 0.206023,0.05821 0.413456,0.11183 0.61842,0.173567 v 0 l 0.61595,0.18168 c 0.408869,0.127353 0.818091,0.253294 1.223786,0.389819 v 0 c 1.626305,0.537634 3.224036,1.161698 4.790369,1.855964 v 0 c 0.782108,0.349603 1.556103,0.716492 2.32163,1.101372 v 0 c 0.763412,0.388056 1.518003,0.793398 2.262364,1.216732 v 0 c 1.4859,0.85125 2.930525,1.77411 4.310239,2.78517 v 0 c 0.329847,0.23813 0.651933,0.48649 0.974372,0.73378 v 0 l -7.06e-4,0.001 c 0.592667,0.49777 1.169106,1.01353 1.71062,1.55963 v 0 c 0.540455,0.54575 1.050924,1.11972 1.486958,1.73743 v 0 c 0.218016,0.30798 0.41663,0.62724 0.582083,0.9578 v 0 l 0.06138,0.12417 0.0568,0.12559 c 0.03916,0.0833 0.06985,0.16863 0.104422,0.2533 v 0 c 0.05468,0.15204 0.10548,0.3048 0.142169,0.45931 v 0 c 0.0042,0.0187 0.0095,0.0374 0.01376,0.0561 v 0 c 0.03775,0.17322 0.06456,0.34714 0.07232,0.51965 v 0 c 0.0067,0.17215 -0.0032,0.3429 -0.03175,0.50905 v 0 c -0.0035,0.0208 -0.0081,0.0406 -0.01199,0.061 v 0 c -0.06174,0.3101 -0.194734,0.60184 -0.385939,0.86184 v 0 c -0.1016,0.13829 -0.217311,0.26882 -0.346428,0.38947 v 0 c -0.129469,0.11994 -0.269875,0.23107 -0.417689,0.33478 v 0 c -0.148519,0.10372 -0.306211,0.1965 -0.46743,0.28505 v 0 c -0.162278,0.0868 -0.3302,0.16615 -0.500945,0.24024 v 0 c -0.343253,0.14605 -0.700969,0.2674 -1.065389,0.37077 v 0 c -0.365125,0.10195 -0.736952,0.18591 -1.112661,0.25541 v 0 c -0.751769,0.13899 -1.518002,0.2219 -2.287763,0.2674 v 0 c -0.769409,0.0448 -1.54305,0.0519 -2.316339,0.0307 v 0 c -1.547332,-0.0434 -3.09391,-0.20148 -4.625318,-0.4456 v 0 c -1.532114,-0.24553 -3.050117,-0.58103 -4.541661,-1.00506 v 0 c -0.935919,-0.2667 -1.861608,-0.57045 -2.770364,-0.91405 v 0 c -0.470605,-0.1778 -0.936272,-0.3676 -1.397,-0.56833 v 0 c -0.06738,-0.0293 -0.135114,-0.0575 -0.202141,-0.0871 v 0 c -1.147586,-0.51188 -2.263422,-1.09714 -3.307292,-1.78364 v 0 c -0.109361,-0.0787 -0.219428,-0.15734 -0.329141,-0.2353 v 0 l -0.285045,-0.18732 c -0.03104,-0.0222 -0.06209,-0.0441 -0.09278,-0.0663 v 0 l -0.0028,0.004 -0.115711,-0.0759 c -0.08184,-0.0561 -0.167922,-0.10513 -0.252589,-0.15628 v 0 l -0.254705,-0.1524 c -0.683687,-0.40003 -1.394181,-0.75457 -2.127253,-1.05619 v 0 c -0.734131,-0.29986 -1.491898,-0.54222 -2.263775,-0.72743 v 0 c -1.54305,-0.36901 -3.15207,-0.50024 -4.739922,-0.32173 v 0 c -0.793045,0.0896 -1.580092,0.25717 -2.340328,0.51188 v 0 c -0.760589,0.25435 -1.494367,0.59654 -2.174169,1.0294 v 0 c -0.62865,0.39935 -1.209322,0.87771 -1.720497,1.42275 v 0 c -0.04128,0.0441 -0.08361,0.0882 -0.124178,0.13335 v 0 c -0.221545,0.24624 -0.427567,0.50553 -0.619125,0.77506 v 0 c -0.275872,0.38946 -0.521053,0.8001 -0.729897,1.22837 v 0 c -0.103012,0.21061 -0.196498,0.42545 -0.282928,0.64241 v 0 c 0.01517,-0.68227 0.03598,-1.36384 0.06703,-2.04435 m 10.188221,36.0105 c -0.833614,-0.13088 -1.652763,-0.33303 -2.441222,-0.61419 v 0 c -0.09948,-0.0325 -0.195791,-0.073 -0.292805,-0.11113 v 0 c -0.09701,-0.0392 -0.195086,-0.0755 -0.291042,-0.11712 v 0 c -0.189442,-0.0864 -0.382764,-0.16616 -0.566914,-0.26388 v 0 c -0.375003,-0.18203 -0.732014,-0.39722 -1.078089,-0.62688 v 0 l -0.256489,-0.17785 c -0.08431,-0.0607 -0.165453,-0.12559 -0.248356,-0.18838 v 0 l -0.123825,-0.0945 -0.118886,-0.10019 c -0.07867,-0.0677 -0.160161,-0.13264 -0.236714,-0.20249 v 0 c -0.310091,-0.27694 -0.599016,-0.57644 -0.873125,-0.88971 v 0 c -0.268463,-0.31785 -0.521052,-0.65017 -0.752827,-0.9973 v 0 c -0.05821,-0.0868 -0.112184,-0.17639 -0.168275,-0.26459 v 0 l -0.08396,-0.13229 -0.07867,-0.13617 c -0.05221,-0.0907 -0.105833,-0.18062 -0.156633,-0.27234 v 0 l -0.147108,-0.27764 c -0.191559,-0.37324 -0.370064,-0.75424 -0.525992,-1.14582 v 0 c -0.0822,-0.19403 -0.153106,-0.39335 -0.227189,-0.5902 v 0 c -0.03704,-0.0991 -0.06914,-0.20002 -0.103717,-0.29986 v 0 c -0.03351,-0.10019 -0.0695,-0.19932 -0.09948,-0.30092 v 0 c -0.255764,-0.8068 -0.462492,-1.6316 -0.624064,-2.46768 v 0 c -0.163336,-0.83573 -0.28963,-1.68028 -0.389114,-2.52906 v 0 C 9.37745,131.45416 9.305126,130.60043 9.250093,129.7446 v 0 c -0.109714,-1.71133 -0.150637,-3.43042 -0.16757,-5.15127 v 0 c -0.01693,-1.7212 -0.0088,-3.44452 -0.0067,-5.16995 v 0 l -0.0025,-4.26614 h 3.53e-4 c 0.0042,-0.75424 0.07303,-1.50672 0.225072,-2.24014 v 0 c 0.151341,-0.73343 0.38735,-1.4478 0.714375,-2.11667 v 0 c 0.01799,-0.0363 0.03704,-0.0727 0.05574,-0.10901 v 0 c 0.210608,-0.41592 0.456494,-0.8128 0.735541,-1.18498 v 0 c 0.14217,-0.18979 0.291395,-0.37359 0.449792,-0.54927 v 0 c 0.496358,-0.55281 1.071386,-1.0347 1.700389,-1.4344 v 0 c 0.629003,-0.4004 1.311275,-0.71931 2.021769,-0.95708 v 0 c 0.710847,-0.23813 1.449917,-0.39547 2.198158,-0.48013 v 0 c 1.497542,-0.16863 3.027539,-0.0452 4.499681,0.30691 v 0 c 0.736247,0.1771 1.4605,0.40781 2.16288,0.69533 v 0 c 0.701675,0.28857 1.382183,0.62794 2.037645,1.01141 v 0 l 0.244122,0.1464 c 0.08149,0.0487 0.163689,0.096 0.242358,0.14958 v 0 l 0.189795,0.12453 c 0.201083,0.14429 0.404989,0.28469 0.611364,0.42051 v 0 c 0.200377,0.14429 0.399344,0.29034 0.59055,0.44627 v 0 c 0.595488,0.47201 1.165225,0.97825 1.690863,1.52858 v 0 c 0.216606,0.22507 0.428625,0.45509 0.635,0.69004 v 0 c 0.295981,0.3369 0.579967,0.68403 0.846314,1.04528 v 0 l 0.07902,0.10371 0.09419,0.12348 0.162984,0.23424 c 0.10795,0.15699 0.219427,0.3115 0.324908,0.47025 v 0 c 0.202494,0.32244 0.414514,0.63959 0.599369,0.97332 v 0 l 0.143228,0.24765 0.07161,0.12347 c 0.02399,0.0413 0.04445,0.084 0.06703,0.12629 v 0 l 0.265995,0.50659 0.06632,0.12665 c 0.02152,0.0427 0.04127,0.0861 0.06138,0.12912 v 0 l 0.122766,0.25858 0.122061,0.25894 0.06138,0.12912 c 0.02046,0.0434 0.03775,0.0875 0.05644,0.13158 v 0 c 0.147462,0.35208 0.304448,0.70027 0.432859,1.06045 v 0 c 0.06667,0.17886 0.136878,0.35631 0.20073,0.53693 v 0 l 0.180623,0.54363 0.09031,0.27235 c 0.02787,0.0914 0.05327,0.18344 0.08043,0.27516 v 0 l 0.159455,0.55069 c 0.02787,0.0917 0.04974,0.1845 0.07303,0.27763 v 0 l 0.06879,0.27835 c 0.0448,0.18626 0.09454,0.37112 0.135467,0.55809 v 0 l 0.117122,0.56198 0.05821,0.28116 c 0.02117,0.0935 0.03351,0.18874 0.05009,0.28257 v 0 l 0.09596,0.56692 c 0.01517,0.0942 0.03387,0.18803 0.04621,0.28328 v 0 l 0.03739,0.28469 0.07479,0.57044 0.01835,0.14252 0.01376,0.14288 0.02752,0.28646 0.05433,0.57255 c 0.01623,0.19086 0.02434,0.38312 0.03704,0.57433 v 0 l 0.03457,0.57467 0.01552,0.57538 0.02857,1.16452 c 0.0032,0.0981 0.0032,0.19615 0.0085,0.29457 v 0 l 0.01623,0.29457 0.01588,0.29457 c 0.0028,0.0494 0.0049,0.0981 0.0085,0.14746 v 0 l 0.0127,0.14711 0.05221,0.58914 0.07232,0.58808 c 0.109361,0.78281 0.266347,1.56351 0.502356,2.32763 v 0 c 0.05327,0.19261 0.125589,0.38029 0.192264,0.56903 v 0 l 0.0508,0.14181 c 0.0187,0.0466 0.0388,0.0928 0.05785,0.13935 v 0 l 0.117122,0.27834 c 0.03704,0.0938 0.08537,0.18274 0.129117,0.27411 v 0 l 0.134056,0.27199 0.150636,0.26494 0.07549,0.13194 c 0.02575,0.0437 0.05539,0.0857 0.0829,0.12876 v 0 l 0.168275,0.25506 c 0.05821,0.084 0.122766,0.16404 0.18415,0.24588 v 0 l 0.09313,0.12207 c 0.03104,0.0406 0.06703,0.078 0.09984,0.11677 v 0 l 0.203905,0.23212 c 0.287514,0.29493 0.59937,0.56868 0.941917,0.80222 v 0 c 0.345722,0.22895 0.714375,0.42157 1.09855,0.57432 v 0 c 0.386997,0.14605 0.785989,0.25153 1.189214,0.32209 v 0 c 0.404283,0.0677 0.811036,0.0942 1.216377,0.0981 v 0 c 0.341842,-0.001 0.681214,-0.0243 1.01847,-0.061 v 0 c 0.06244,-0.007 0.125236,-0.0145 0.187325,-0.0219 v 0 c 0.63253,-0.0885 1.254125,-0.22754 1.860197,-0.40781 v 0 c 0.155574,-0.0462 0.310444,-0.0949 0.463902,-0.14676 v 0 c 0.377472,-0.12241 0.746125,-0.26705 1.113014,-0.41416 v 0 c 0.364066,-0.15416 0.726369,-0.31221 1.0795,-0.48648 v 0 c 0.608894,-0.29351 1.200855,-0.61807 1.779411,-0.9645 v 0 c -0.02046,0.0169 -0.04092,0.0339 -0.06174,0.0505 v 0 l -0.501298,0.399 c -0.339372,0.25999 -0.677333,0.52175 -1.024113,0.77187 v 0 c -0.795867,0.58315 -1.614311,1.13665 -2.448631,1.66441 v 0 c -0.612069,0.387 -1.232958,0.76094 -1.861607,1.12113 v 0 c -0.01517,0.008 -0.03069,0.0169 -0.04586,0.0257 v 0 c -0.729545,0.41381 -1.468614,0.81068 -2.216503,1.19097 v 0 c -0.765528,0.38453 -1.539522,0.75177 -2.321631,1.10138 v 0 c -1.566333,0.69426 -3.164063,1.31797 -4.790369,1.85561 v 0 c -0.405669,0.13687 -0.814891,0.26246 -1.22376,0.38981 v 0 l -0.61595,0.18168 c -0.204964,0.0621 -0.412397,0.11536 -0.61842,0.17357 v 0 c -0.8255,0.22578 -1.656291,0.43251 -2.492727,0.61172 v 0 c -1.673225,0.3556 -3.365853,0.62018 -5.0673,0.74542 v 0 c -0.687917,0.049 -1.377598,0.078 -2.065867,0.078 v 0 c -1.012472,0 -2.021417,-0.0628 -3.014839,-0.21767 M 46.760986,113.8372 c 0.793044,-0.0469 1.586089,-0.13229 2.373488,-0.27799 v 0 c 0.786695,-0.14605 1.570214,-0.34995 2.325159,-0.67063 v 0 c 0.187677,-0.0811 0.374297,-0.16898 0.556683,-0.26705 v 0 c 0.182033,-0.0995 0.361597,-0.20567 0.534458,-0.32632 v 0 c 0.172861,-0.12065 0.339725,-0.25259 0.496711,-0.39864 v 0 c 0.156987,-0.14675 0.302684,-0.30974 0.432506,-0.48648 v 0 c 0.129469,-0.17709 0.242711,-0.36971 0.331611,-0.57397 v 0 c 0.0032,-0.007 0.0056,-0.0145 0.0085,-0.0215 v 0 c 0.08467,-0.19826 0.144991,-0.4071 0.18168,-0.61842 v 0 c 0.01446,-0.0854 0.02434,-0.17074 0.03175,-0.25611 v 0 c 0.01129,-0.13477 0.01482,-0.26988 0.0095,-0.40393 v 0 c -0.0095,-0.21873 -0.04304,-0.43251 -0.0889,-0.64135 v 0 c -0.04516,-0.20955 -0.11183,-0.40993 -0.183091,-0.60749 v 0 c -0.03916,-0.0967 -0.0755,-0.19544 -0.119592,-0.28928 v 0 l -0.0088,-0.0201 c 0.06138,0.0691 0.122414,0.13865 0.182739,0.2085 v 0 c 0.407106,0.4699 0.8001,0.95144 1.171928,1.44815 v 0 c 0.137583,0.1838 0.272697,0.36936 0.403931,0.55739 v 0 c 0.07373,0.10513 0.146402,0.21096 0.218016,0.31715 v 0 c 0.880181,1.29998 1.6256,2.68957 2.159706,4.15713 v 0 c 0.579614,1.58468 0.903111,3.26178 0.902758,4.94453 v 0 c 3.53e-4,1.6824 -0.323144,3.35986 -0.902758,4.94489 v 0 c -0.578203,1.5875 -1.402292,3.08398 -2.377722,4.47428 v 0 c -0.178153,0.25435 -0.362303,0.50518 -0.551392,0.75212 v 0 l -0.0074,-0.005 c -0.44062,0.59372 -0.975431,1.14159 -1.531409,1.65947 v 0 c -0.558447,0.51823 -1.150055,1.00365 -1.760713,1.46438 v 0 c -0.613128,0.4572 -1.243542,0.89252 -1.895828,1.29222 v 0 c -0.566561,0.34925 -1.146175,0.67698 -1.7399,0.97473 v 0 c -0.08819,0.0444 -0.177094,0.0885 -0.266347,0.13123 v 0 c -0.341842,0.16898 -0.691092,0.32103 -1.041753,0.46919 v 0 c -0.352778,0.14217 -0.706614,0.28082 -1.067153,0.39758 v 0 c -0.1778,0.06 -0.356305,0.11607 -0.536222,0.16793 v 0 c -0.546841,0.15806 -1.10176,0.27871 -1.659855,0.35702 v 0 c -0.371122,0.0459 -0.743655,0.0755 -1.114425,0.0765 v 0 c -0.370064,-0.004 -0.739069,-0.0279 -1.100666,-0.0882 v 0 c -0.360539,-0.0635 -0.71367,-0.15699 -1.053395,-0.28469 v 0 c -0.336903,-0.13441 -0.65793,-0.30233 -0.959555,-0.502 v 0 c -0.298803,-0.20391 -0.571853,-0.4438 -0.825853,-0.7038 v 0 l -0.180269,-0.20531 c -0.02963,-0.0346 -0.06174,-0.067 -0.08925,-0.10407 v 0 l -0.08326,-0.10901 c -0.05468,-0.0734 -0.112537,-0.14464 -0.164748,-0.21978 v 0 l -0.151693,-0.23036 c -0.02505,-0.0388 -0.05151,-0.0762 -0.07479,-0.11607 v 0 l -0.06844,-0.1203 -0.137231,-0.24059 -0.123119,-0.25012 c -0.03986,-0.0836 -0.08502,-0.1651 -0.118534,-0.25224 v 0 l -0.108655,-0.25788 c -0.01764,-0.043 -0.03669,-0.0857 -0.05362,-0.12911 v 0 l -0.04727,-0.13229 c -0.06244,-0.17675 -0.130175,-0.35102 -0.180269,-0.53305 v 0 c -0.221897,-0.71826 -0.372533,-1.46332 -0.477661,-2.2165 v 0 l -0.06985,-0.56621 -0.05009,-0.57044 -0.01235,-0.14253 c -0.0035,-0.0476 -0.0056,-0.0952 -0.0085,-0.14287 v 0 l -0.01552,-0.2861 -0.01552,-0.28646 c -0.0053,-0.0953 -0.0053,-0.19121 -0.0081,-0.28681 v 0 l -0.02858,-1.16205 -0.01623,-0.58773 -0.03528,-0.58667 c -0.0127,-0.19543 -0.02117,-0.39158 -0.03739,-0.58702 v 0 l -0.05609,-0.58561 -0.02787,-0.2928 -0.01376,-0.14641 -0.0187,-0.14569 -0.0769,-0.58385 -0.03845,-0.2921 c -0.01235,-0.097 -0.03175,-0.19368 -0.04692,-0.29034 v 0 l -0.09842,-0.58067 c -0.01764,-0.097 -0.03034,-0.19403 -0.05186,-0.28998 v 0 l -0.05962,-0.28858 -0.119944,-0.57679 c -0.04233,-0.19226 -0.09313,-0.38206 -0.139348,-0.57326 v 0 l -0.07091,-0.2861 c -0.02364,-0.0956 -0.04621,-0.19121 -0.07514,-0.28505 v 0 l -0.163688,-0.56656 c -0.02752,-0.0945 -0.05398,-0.18944 -0.0829,-0.28328 v 0 l -0.09313,-0.28011 -0.185913,-0.56021 c -0.06562,-0.18556 -0.137936,-0.36865 -0.206728,-0.55315 v 0 c -0.132292,-0.37112 -0.294217,-0.7306 -0.446264,-1.09397 v 0 c -0.01976,-0.0452 -0.03775,-0.091 -0.05856,-0.13546 v 0 l -0.06315,-0.1337 -0.126295,-0.26741 -0.126294,-0.26705 c -0.02152,-0.0444 -0.04163,-0.0893 -0.06385,-0.13335 v 0 l -0.06879,-0.13088 -0.274461,-0.52388 c -0.02364,-0.0434 -0.04516,-0.0878 -0.0695,-0.13053 v 0 l -0.07408,-0.12805 -0.148166,-0.25612 c -0.191559,-0.34537 -0.410986,-0.67345 -0.621242,-1.00753 v 0 c -7.06e-4,-0.001 -0.0011,-0.002 -0.0018,-0.003 v 0 c -0.10866,-0.16367 -0.223313,-0.32242 -0.334438,-0.48399 v 0 l -0.169333,-0.24306 -0.179211,-0.23601 c -0.01341,-0.0176 -0.02716,-0.0353 -0.04022,-0.0529 v 0 c -0.427567,-0.57362 -0.896761,-1.11584 -1.389945,-1.63442 v 0 c 0.177448,0.0833 0.354895,0.16439 0.533048,0.24412 v 0 c 0.479425,0.21237 0.963788,0.41134 1.452386,0.59937 v 0 c 0.390525,0.15063 0.783519,0.29351 1.179336,0.42933 v 0 c 0.605014,0.20743 1.215319,0.39864 1.829858,0.57397 v 0 c 1.519414,0.43251 3.06317,0.77329 4.622094,1.02341 v 0 c 1.559278,0.24836 3.133725,0.40922 4.716286,0.45403 v 0 c 0.280106,0.007 0.560564,0.0116 0.841022,0.0116 v 0 c 0.511528,0 1.023761,-0.0134 1.535642,-0.0434"
       style="fill:#ffffff;stroke:none;stroke-width:0.352778" />
    <path
       id="path77"
       d="m 21.847428,91.560949 c -0.925337,0.01588 -1.861609,0.07514 -2.807053,0.198966 v 0 c -0.945092,0.125589 -1.900767,0.321028 -2.851856,0.610659 v 0 c -0.475191,0.149577 -0.95003,0.315383 -1.417461,0.521405 v 0 c -0.234597,0.09631 -0.464961,0.213078 -0.696736,0.32385 v 0 l -0.342194,0.182033 c -0.0568,0.03104 -0.1143,0.05997 -0.170039,0.09349 v 0 l -0.168275,0.09984 -0.167569,0.09984 -0.08361,0.05009 -0.0822,0.05362 -0.328083,0.2159 c -0.213431,0.153459 -0.428625,0.303742 -0.632531,0.472017 v 0 c -0.208139,0.161219 -0.40393,0.338667 -0.60078,0.51435 v 0 l -0.285045,0.274461 c -0.04798,0.04551 -0.09349,0.09313 -0.138641,0.141111 v 0 l -0.13582,0.143581 -0.135114,0.143933 -0.129116,0.148519 -0.128764,0.149225 -0.0635,0.07514 -0.06103,0.07691 -0.243064,0.307975 -0.2286,0.316089 c -0.296333,0.42545 -0.567266,0.864305 -0.804686,1.312686 v 0 c -0.236008,0.44838 -0.44838,0.903463 -0.633589,1.362075 v 0 C 8.330039,99.907325 8.164234,100.3684 8.024534,100.82984 v 0 c -0.1397,0.46072 -0.265995,0.92251 -0.37077,1.38182 v 0 c -0.05644,0.23072 -0.101247,0.45967 -0.150636,0.68933 v 0 c -0.02364,0.11465 -0.0441,0.22895 -0.06632,0.34325 v 0 c -0.02152,0.11466 -0.0441,0.22931 -0.06279,0.34326 v 0 c -0.318558,1.82809 -0.458963,3.62479 -0.542925,5.39785 v 0 c -0.08079,1.77271 -0.09737,3.52249 -0.101952,5.25921 v 0 l 0.0028,5.1756 c -0.0021,1.72085 -0.01023,3.45193 0.0067,5.19607 v 0 c 0.01764,1.74413 0.05856,3.50237 0.172508,5.27896 v 0 c 0.05715,0.8883 0.132644,1.78153 0.236714,2.6797 v 0 c 0.10548,0.89818 0.239889,1.80199 0.417336,2.70969 v 0 c 0.175683,0.90699 0.403225,1.81963 0.691092,2.72909 v 0 c 0.03422,0.11395 0.07444,0.22719 0.112888,0.34113 v 0 c 0.03951,0.1136 0.07585,0.22719 0.118181,0.34043 v 0 c 0.08467,0.22649 0.166158,0.45368 0.261056,0.67875 v 0 c 0.180269,0.45155 0.388761,0.89958 0.616302,1.34161 v 0 l 0.175331,0.33056 c 0.06068,0.10936 0.124883,0.21801 0.187678,0.32667 v 0 l 0.09454,0.16333 0.101247,0.16052 c 0.06773,0.10689 0.133703,0.21484 0.204259,0.32032 v 0 c 0.282575,0.42333 0.593372,0.83326 0.926747,1.22767 v 0 c 0.34043,0.38982 0.70238,0.76411 1.091494,1.1116 v 0 c 0.09666,0.0878 0.197908,0.16969 0.297392,0.25435 v 0 l 0.14993,0.12594 0.154517,0.11924 c 0.104069,0.0787 0.206375,0.15981 0.311856,0.23566 v 0 l 0.320675,0.22295 c 0.432858,0.28717 0.879122,0.55387 1.340202,0.77929 v 0 c 0.228247,0.11959 0.463197,0.21837 0.696031,0.3235 v 0 c 0.116769,0.0505 0.235303,0.0949 0.35313,0.14217 v 0 c 0.117475,0.0466 0.235303,0.0952 0.354542,0.1344 v 0 c 0.949325,0.33938 1.914172,0.57433 2.870905,0.72496 v 0 c 0.957086,0.14923 1.90747,0.22119 2.845506,0.2406 v 0 c 0.470605,0.0102 0.932744,0.005 1.394177,-0.008 v 0 c 0.230364,-0.009 0.461081,-0.0145 0.690739,-0.0282 v 0 c 0.228953,-0.0141 0.458259,-0.0261 0.687211,-0.0427 v 0 c 1.828448,-0.13476 3.622676,-0.41628 5.38727,-0.79128 v 0 c 0.882297,-0.18909 1.755422,-0.4064 2.621844,-0.64312 v 0 c 0.2159,-0.061 0.433211,-0.11747 0.648406,-0.18238 v 0 l 0.64523,-0.19015 c 0.42792,-0.13335 0.856545,-0.26529 1.281289,-0.40816 v 0 c 1.701472,-0.56265 3.369758,-1.21353 5.005589,-1.93919 v 0 c 0.817033,-0.36512 1.6256,-0.74859 2.4257,-1.15076 v 0 c 0.798688,-0.40534 1.587852,-0.82973 2.367491,-1.27318 v 0 c 1.556808,-0.89147 3.074458,-1.8609 4.53143,-2.92911 v 0 c 0.366183,-0.26423 0.724253,-0.54081 1.083381,-0.81633 v 0 l 0.531989,-0.42298 c 0.177447,-0.14076 0.349602,-0.28892 0.524933,-0.43321 v 0 c 0.696383,-0.58314 1.376186,-1.19062 2.033411,-1.82703 v 0 c 0.655461,-0.63853 1.289755,-1.30528 1.895475,-2.00308 v 0 c 0.604661,-0.6985 1.18498,-1.42522 1.721555,-2.19216 v 0 c 1.074208,-1.53105 2.002367,-3.20569 2.663825,-5.02179 v 0 c 0.3302,-0.90734 0.593019,-1.8482 0.771172,-2.81164 v 0 c 0.178153,-0.96308 0.271992,-1.94768 0.272697,-2.9344 v 0 c -7.05e-4,-0.98637 -0.09454,-1.97168 -0.272697,-2.93441 v 0 c -0.178153,-0.96343 -0.440972,-1.90429 -0.771172,-2.81128 v 0 c -0.661458,-1.8161 -1.589617,-3.49109 -2.663825,-5.0218 v 0 c -0.536575,-0.76764 -1.116894,-1.49401 -1.721555,-2.19251 v 0 c -0.60572,-0.69779 -1.240014,-1.36419 -1.895475,-2.00307 v 0 c -0.657225,-0.63641 -1.337028,-1.24354 -2.033411,-1.82704 v 0 c -0.175331,-0.14393 -0.347486,-0.2921 -0.524933,-0.43286 v 0 l -0.531989,-0.42333 c -0.359128,-0.27552 -0.717198,-0.5521 -1.083381,-0.81632 v 0 c -1.456972,-1.06786 -2.974622,-2.037295 -4.53143,-2.928764 v 0 c -0.779639,-0.443252 -1.568803,-0.867643 -2.367491,-1.273338 v 0 c -0.8001,-0.402166 -1.608667,-0.785636 -2.4257,-1.150761 v 0 c -1.635831,-0.725311 -3.304117,-1.376539 -5.005564,-1.938866 v 0 c -0.424744,-0.143228 -0.853369,-0.274814 -1.281289,-0.408164 v 0 l -0.64523,-0.1905 c -0.215195,-0.06456 -0.432506,-0.121003 -0.648406,-0.182033 v 0 c -0.866422,-0.237067 -1.739547,-0.454025 -2.621844,-0.643467 v 0 c -1.764594,-0.37465 -3.558822,-0.65652 -5.38727,-0.790928 v 0 c -0.228952,-0.01658 -0.458258,-0.02857 -0.687211,-0.04304 v 0 c -0.229658,-0.01376 -0.460375,-0.0187 -0.690739,-0.02822 v 0 c -0.297391,-0.0085 -0.596547,-0.01341 -0.895349,-0.01341 v 0 c -0.164042,0 -0.328084,0.0014 -0.492125,0.0046 m 0.0078,55.402681 c -0.911578,-0.0187 -1.830917,-0.0889 -2.751667,-0.23248 v 0 c -0.920397,-0.14464 -1.841853,-0.36971 -2.743553,-0.69179 v 0 c -0.113241,-0.0374 -0.224366,-0.0836 -0.336197,-0.12771 v 0 c -0.111125,-0.0444 -0.223661,-0.0864 -0.334433,-0.13441 v 0 c -0.220133,-0.10019 -0.442383,-0.19262 -0.657578,-0.30621 v 0 c -0.43568,-0.21237 -0.855839,-0.4639 -1.262239,-0.73413 v 0 l -0.301977,-0.2092 c -0.09913,-0.0713 -0.195086,-0.14746 -0.292806,-0.22154 v 0 l -0.145344,-0.11219 -0.140759,-0.11782 c -0.09349,-0.0797 -0.188736,-0.15699 -0.2794,-0.23883 v 0 c -0.365477,-0.32668 -0.705908,-0.67875 -1.026583,-1.04599 v 0 c -0.314325,-0.37183 -0.607483,-0.75882 -0.875242,-1.15958 v 0 c -0.06703,-0.0998 -0.129116,-0.20249 -0.193675,-0.30339 v 0 l -0.09596,-0.1524 -0.09031,-0.15487 c -0.05927,-0.10372 -0.120297,-0.20637 -0.1778,-0.31044 v 0 l -0.16757,-0.31503 c -0.216252,-0.42157 -0.416277,-0.84984 -0.589139,-1.28376 v 0 c -0.09102,-0.2159 -0.169333,-0.43462 -0.251177,-0.65229 v 0 c -0.04057,-0.10901 -0.0755,-0.21907 -0.113595,-0.32843 v 0 c -0.03704,-0.10936 -0.0762,-0.21908 -0.109008,-0.32915 v 0 C 8.640874,136.92288 8.41933,136.03635 8.248233,135.15017 v 0 C 8.074666,134.264 7.942727,133.37782 7.838658,132.49411 v 0 c -0.101953,-0.88336 -0.176742,-1.76495 -0.233186,-2.64372 v 0 c -0.112537,-1.75718 -0.153459,-3.50343 -0.170745,-5.24086 v 0 c -0.01693,-1.73743 -0.0088,-3.46604 -0.0071,-5.18831 v 0 l -0.0021,-4.26402 -7.06e-4,-0.91087 c 0.0032,-1.13983 0.01164,-2.28353 0.03986,-3.43218 v 0 c 0.01482,-0.5976 0.03422,-1.19627 0.06138,-1.79669 v 0 c 0.08325,-1.75507 0.22225,-3.52637 0.5334,-5.30966 v 0 c 0.01799,-0.11148 0.03986,-0.22296 0.06103,-0.33444 v 0 c 0.02152,-0.11147 0.04163,-0.22295 0.06456,-0.33443 v 0 c 0.04763,-0.22295 0.09172,-0.44626 0.14605,-0.66922 v 0 c 0.1016,-0.44591 0.224014,-0.89147 0.358423,-1.33561 v 0 c 0.134761,-0.4445 0.293864,-0.88618 0.467783,-1.324681 v 0 c 0.176742,-0.43815 0.378883,-0.870655 0.602192,-1.295752 v 0 c 0.453319,-0.847725 1.011413,-1.662995 1.688394,-2.382309 v 0 l 0.127353,-0.134761 c 0.04198,-0.04516 0.08467,-0.0896 0.129469,-0.131939 v 0 l 0.267053,-0.257175 c 0.184503,-0.164041 0.367242,-0.330552 0.562328,-0.481541 v 0 c 0.190852,-0.157339 0.392994,-0.29845 0.593019,-0.441678 v 0 l 0.307622,-0.202847 0.07726,-0.0508 0.07867,-0.04692 0.157339,-0.09384 0.157692,-0.09384 c 0.05292,-0.0314 0.107244,-0.05821 0.160866,-0.08784 v 0 l 0.322086,-0.171803 c 0.219075,-0.104422 0.435681,-0.214489 0.658284,-0.305858 v 0 c 0.44203,-0.194733 0.893586,-0.352425 1.3462,-0.4953 v 0 c 0.907344,-0.275872 1.824919,-0.464256 2.738613,-0.585611 v 0 c 0.914048,-0.119592 1.824214,-0.177447 2.727678,-0.19297 v 0 c 0.903111,-0.01552 1.807986,0.01305 2.702278,0.07796 v 0 c 1.791053,0.132292 3.555294,0.408517 5.292372,0.777875 v 0 c 0.868539,0.186267 1.729317,0.40005 2.583744,0.633942 v 0 c 0.213078,0.05997 0.427214,0.115711 0.638881,0.179564 v 0 l 0.637116,0.187677 c 0.422275,0.131587 0.845256,0.261409 1.264003,0.402873 v 0 c 1.679219,0.554914 3.326691,1.198028 4.941708,1.914167 v 0 c 0.80645,0.360539 1.605139,0.739069 2.395008,1.135944 v 0 c 0.788106,0.400403 1.567039,0.81915 2.336095,1.256595 v 0 c 1.535641,0.879475 3.031771,1.835148 4.465813,2.886418 v 0 c 0.358422,0.25859 0.70873,0.52952 1.060097,0.79869 v 0 l 0.0056,0.004 0.522464,0.41628 c 0.174978,0.13829 0.344311,0.28363 0.516467,0.4251 v 0 c 0.683683,0.57362 1.351139,1.1691 1.994958,1.79317 v 0 c 0.630061,0.61348 1.23825,1.25271 1.819275,1.91981 v 0 c 0.01199,0.0134 0.02364,0.0265 0.03492,0.0399 v 0 c 0.590903,0.68192 1.156758,1.39065 1.678517,2.13678 v 0 c 1.044927,1.48907 1.942041,3.11079 2.578805,4.85916 v 0 c 0.318206,0.87313 0.570089,1.77659 0.740833,2.69981 v 0 c 0.171098,0.92287 0.26035,1.86478 0.261056,2.80811 v 0 c -7.06e-4,0.94333 -0.08996,1.88524 -0.261056,2.80846 v 0 c -0.170744,0.92287 -0.422627,1.82633 -0.740833,2.69946 v 0 c -0.636764,1.74837 -1.533878,3.37044 -2.578805,4.85951 v 0 c -0.185209,0.26459 -0.376061,0.52423 -0.571148,0.77999 v 0 c -0.355247,0.46532 -0.726016,0.91687 -1.107369,1.35679 v 0 c -0.591255,0.68121 -1.211792,1.33385 -1.8542,1.95968 v 0 c -0.643819,0.62371 -1.311275,1.21955 -1.994958,1.79281 v 0 c -0.172156,0.14147 -0.341489,0.28717 -0.516467,0.4251 v 0 l -0.02505,0.0201 -0.497417,0.39617 c -0.35313,0.27093 -0.705555,0.54293 -1.065741,0.80292 v 0 c -1.434042,1.05128 -2.930172,2.0066 -4.465813,2.88643 v 0 c -0.769056,0.43745 -1.547989,0.85584 -2.336095,1.2566 v 0 c -0.789869,0.39687 -1.588558,0.7754 -2.395008,1.13594 v 0 c -1.614965,0.71653 -3.262437,1.35929 -4.941659,1.91456 v 0 c -0.418747,0.14111 -0.841728,0.27093 -1.264003,0.40287 v 0 l -0.637116,0.18768 c -0.211667,0.0635 -0.425803,0.11924 -0.638881,0.17956 v 0 c -0.854427,0.23354 -1.715205,0.44768 -2.583744,0.63359 v 0 c -1.737078,0.36936 -3.501319,0.64594 -5.292372,0.77788 v 0 c -0.724606,0.0522 -1.45027,0.0822 -2.183342,0.0822 v 0 c -0.173919,0 -0.348192,-0.002 -0.523169,-0.005"
       style="fill:#ffffff;stroke:none;stroke-width:0.352778" />
    <path
       id="path81"
       d="m 17.281425,107.03166 c -1.372658,0.15346 -2.697339,0.58102 -3.815997,1.29434 v 0 c -0.559506,0.3556 -1.066094,0.78105 -1.503186,1.26753 v 0 c -0.437445,0.48613 -0.804686,1.03294 -1.093964,1.6249 v 0 c -0.04198,0.0868 -0.08255,0.17462 -0.121355,0.26352 v 0 c -0.227895,0.51612 -0.399345,1.06292 -0.516114,1.62842 v 0 c -0.137231,0.66287 -0.200731,1.35008 -0.205317,2.04682 v 0 l 0.0021,4.26755 c -0.0018,1.72685 -0.0099,3.4477 0.0067,5.15938 v 0 c 0.01729,1.71132 0.05821,3.41453 0.165806,5.09975 v 0 c 0.05433,0.84208 0.125236,1.67993 0.221192,2.50931 v 0 c 0.09737,0.82903 0.220486,1.64994 0.377825,2.45639 v 0 c 0.316089,1.61008 0.77858,3.16971 1.491544,4.54942 v 0 l 0.135819,0.25647 c 0.04692,0.0843 0.09631,0.16652 0.143934,0.25012 v 0 l 0.07197,0.12489 0.07691,0.12135 c 0.05151,0.0801 0.100542,0.16228 0.153811,0.2413 v 0 c 0.211314,0.31644 0.440267,0.61701 0.682272,0.90452 v 0 c 0.247297,0.28152 0.506589,0.55034 0.784225,0.79905 v 0 c 0.06879,0.0624 0.141817,0.12029 0.212372,0.18097 v 0 l 0.106187,0.0903 0.111125,0.0847 c 0.07444,0.0557 0.147108,0.1143 0.222602,0.16898 v 0 l 0.230011,0.1591 c 0.31115,0.20567 0.632178,0.40005 0.972256,0.5648 v 0 c 0.165805,0.0885 0.342547,0.16052 0.514703,0.23954 v 0 c 0.08678,0.0381 0.177094,0.0709 0.265289,0.10689 v 0 c 0.0889,0.0349 0.176388,0.072 0.268463,0.1016 v 0 c 0.722489,0.25753 1.483078,0.44626 2.266245,0.56938 v 0 c 0.783519,0.12206 1.5875,0.18486 2.399594,0.20144 v 0 c 0.812447,0.0162 1.639711,-0.0113 2.463094,-0.0706 v 0 c 1.649942,-0.12171 3.301295,-0.37924 4.936773,-0.72708 v 0 c 0.818444,-0.17533 1.631597,-0.37747 2.440869,-0.59866 v 0 c 0.201789,-0.0572 0.404636,-0.10971 0.605719,-0.17039 v 0 l 0.604309,-0.1778 c 0.400403,-0.12524 0.802216,-0.24836 1.20015,-0.38277 v 0 c 1.595977,-0.5274 3.165486,-1.13982 4.703244,-1.82174 v 0 c 0.767644,-0.34325 1.52788,-0.70379 2.278944,-1.08126 v 0 c 0.159103,-0.0808 0.317147,-0.16298 0.475545,-0.24518 v 0 c 0.437797,-0.2279 0.872066,-0.46144 1.302808,-0.70132 v 0 c -0.227895,0.0169 -0.457906,0.0265 -0.690386,0.0272 v 0 c -0.251178,-0.002 -0.504472,-0.0123 -0.758825,-0.0342 v 0 c -0.204611,-0.0176 -0.409575,-0.042 -0.615597,-0.0765 v 0 c -0.462139,-0.0808 -0.923925,-0.2025 -1.375128,-0.37324 v 0 c -0.449439,-0.1778 -0.88265,-0.40428 -1.288344,-0.67381 v 0 c -0.402873,-0.27375 -0.767998,-0.59407 -1.10102,-0.93733 v 0 l -0.235655,-0.26705 c -0.03845,-0.0451 -0.07937,-0.0885 -0.115006,-0.13547 v 0 l -0.107244,-0.1397 c -0.0702,-0.0931 -0.143581,-0.18556 -0.209903,-0.28116 v 0 l -0.191558,-0.28963 c -0.03104,-0.0483 -0.06456,-0.0963 -0.09349,-0.1457 v 0 l -0.08502,-0.14817 -0.168981,-0.29774 c -0.05115,-0.10054 -0.09984,-0.20144 -0.14993,-0.30233 v 0 c -0.04798,-0.10125 -0.1016,-0.20179 -0.142522,-0.30374 v 0 l -0.128764,-0.30657 c -0.02117,-0.0512 -0.04339,-0.1023 -0.0635,-0.15381 v 0 l -0.05539,-0.15416 c -0.07338,-0.20567 -0.151695,-0.41134 -0.20955,-0.61807 v 0 c -0.255059,-0.82691 -0.421217,-1.65664 -0.536223,-2.48038 v 0 l -0.07585,-0.61771 -0.05433,-0.61489 -0.01305,-0.15381 c -0.0039,-0.0508 -0.0063,-0.10196 -0.0092,-0.15276 v 0 l -0.01658,-0.30656 -0.01658,-0.30586 c -0.0056,-0.1023 -0.0056,-0.2032 -0.0088,-0.30515 v 0 l -0.02893,-1.1677 -0.01517,-0.55915 -0.03351,-0.55739 c -0.01235,-0.18556 -0.02011,-0.37218 -0.03563,-0.55703 v 0 l -0.05292,-0.55492 -0.02646,-0.27729 -0.0134,-0.13899 -0.01764,-0.13758 -0.07267,-0.5514 -0.03634,-0.27552 c -0.01129,-0.0921 -0.02963,-0.18238 -0.0441,-0.2741 v 0 l -0.09278,-0.54681 c -0.01623,-0.091 -0.02822,-0.18309 -0.04833,-0.27305 v 0 l -0.05644,-0.27093 -0.112536,-0.54187 c -0.03951,-0.18027 -0.08749,-0.35807 -0.130528,-0.53693 v 0 l -0.06632,-0.26811 c -0.02222,-0.0896 -0.04304,-0.17921 -0.0702,-0.26705 v 0 l -0.153458,-0.52917 c -0.02575,-0.0882 -0.05009,-0.17674 -0.07655,-0.26458 v 0 l -0.08714,-0.2607 -0.173214,-0.52212 c -0.06103,-0.17286 -0.128411,-0.34254 -0.192264,-0.51435 v 0 c -0.122414,-0.34501 -0.273403,-0.67768 -0.414161,-1.01458 v 0 c -0.01799,-0.0416 -0.03457,-0.0847 -0.05398,-0.12559 v 0 l -0.05856,-0.12347 -0.11677,-0.24695 -0.116769,-0.2473 c -0.01976,-0.0409 -0.0381,-0.0825 -0.05891,-0.12347 v 0 l -0.0635,-0.12065 -0.252942,-0.48295 c -0.02152,-0.0402 -0.04163,-0.0815 -0.0642,-0.1203 v 0 l -0.06844,-0.11783 -0.136525,-0.236 c -0.17533,-0.31821 -0.377825,-0.61878 -0.570089,-0.92605 v 0 c -0.09984,-0.15099 -0.206375,-0.29739 -0.30868,-0.44661 v 0 l -0.154872,-0.22296 -0.164394,-0.21555 c -0.341842,-0.46355 -0.713317,-0.9024 -1.102784,-1.32432 v 0 c -0.09948,-0.1076 -0.199672,-0.21449 -0.300919,-0.31997 v 0 c -0.497417,-0.52106 -1.036108,-0.99872 -1.597731,-1.44463 v 0 c -0.176388,-0.14358 -0.359833,-0.27869 -0.544336,-0.41134 v 0 c -0.106186,-0.0765 -0.212725,-0.1524 -0.319264,-0.2286 v 0 l -0.288219,-0.18944 c -0.04304,-0.031 -0.08678,-0.0614 -0.129822,-0.0928 v 0 l -0.0039,0.005 -0.02681,-0.0176 c -0.07373,-0.0508 -0.151342,-0.0949 -0.228247,-0.14111 v 0 l -0.229659,-0.13758 c -0.617008,-0.36089 -1.256594,-0.67981 -1.91523,-0.95109 v 0 c -0.658989,-0.26917 -1.337381,-0.48542 -2.024592,-0.65052 v 0 c -0.9652,-0.23107 -1.95333,-0.35525 -2.932289,-0.35525 v 0 c -0.415572,0 -0.829027,0.0222 -1.238955,0.0684 m 4.641497,36.63703 c -0.785989,-0.0162 -1.558925,-0.0769 -2.305755,-0.19297 v 0 c -0.746478,-0.11712 -1.463675,-0.29633 -2.138892,-0.53658 v 0 c -0.08608,-0.0275 -0.166864,-0.0628 -0.249767,-0.0949 v 0 c -0.08184,-0.0335 -0.166158,-0.0635 -0.246944,-0.0991 v 0 c -0.159103,-0.0737 -0.323497,-0.14005 -0.47625,-0.22189 v 0 c -0.314678,-0.15205 -0.608895,-0.33091 -0.894644,-0.51964 v 0 l -0.210962,-0.14605 c -0.06914,-0.0497 -0.135113,-0.10337 -0.203552,-0.15452 v 0 l -0.1016,-0.0773 -0.09737,-0.0825 c -0.06456,-0.0561 -0.131586,-0.1083 -0.194733,-0.16581 v 0 c -0.254,-0.22754 -0.49142,-0.47448 -0.719314,-0.73307 v 0 c -0.22225,-0.26458 -0.433917,-0.54222 -0.630414,-0.83608 v 0 c -0.04939,-0.0734 -0.09525,-0.15064 -0.143228,-0.22507 v 0 l -0.07161,-0.11289 -0.06738,-0.11677 c -0.04445,-0.078 -0.09066,-0.15452 -0.134761,-0.23389 v 0 l -0.127353,-0.2406 c -0.670631,-1.29681 -1.119717,-2.79576 -1.426281,-4.36386 v 0 c -0.153458,-0.78493 -0.274108,-1.5882 -0.369711,-2.40242 v 0 c -0.09419,-0.81526 -0.164394,-1.64076 -0.218016,-2.47367 v 0 c -0.106539,-1.66582 -0.147461,-3.35739 -0.164042,-5.06201 v 0 c -0.01693,-1.70462 -0.0088,-3.42336 -0.0067,-5.15126 v 0 l -0.0025,-4.26861 h 3.53e-4 c 0.0042,-0.65441 0.06385,-1.29434 0.1905,-1.90536 v 0 c 0.126294,-0.61065 0.319263,-1.19168 0.581377,-1.72755 v 0 c 0.522111,-1.07315 1.326445,-1.96462 2.345267,-2.61091 v 0 c 1.016,-0.6484 2.237669,-1.04704 3.521075,-1.19062 v 0 c 1.284816,-0.14464 2.626783,-0.0399 3.930649,0.27234 v 0 c 0.651934,0.15664 1.296811,0.36195 1.924403,0.61807 v 0 c 0.626533,0.25823 1.236486,0.56268 1.825272,0.90699 v 0 l 0.219781,0.13123 c 0.07303,0.0438 0.147108,0.0861 0.217664,0.13477 v 0 l 0.138641,0.091 c 0.200025,0.14287 0.401461,0.28116 0.604661,0.41557 v 0 c 0.172861,0.12488 0.344664,0.25118 0.51047,0.38664 v 0 c 0.53728,0.42616 1.053394,0.88336 1.529644,1.38324 v 0 c 0.478367,0.49707 0.935214,1.01847 1.347258,1.57798 v 0 l 0.157692,0.20673 0.148872,0.21449 c 0.09842,0.14358 0.200731,0.28433 0.297039,0.42968 v 0 c 0.184856,0.29563 0.379942,0.58455 0.548922,0.89147 v 0 l 0.131586,0.22683 0.06597,0.1136 c 0.02187,0.0381 0.04092,0.0773 0.06138,0.11606 v 0 l 0.244123,0.46602 0.06138,0.11677 c 0.02011,0.0388 0.03775,0.0794 0.0568,0.11889 v 0 l 0.112888,0.23848 0.112889,0.23883 0.05645,0.11888 c 0.0187,0.0399 0.03457,0.0811 0.05221,0.12171 v 0 c 0.13582,0.32561 0.28187,0.64664 0.400403,0.98107 v 0 c 0.06138,0.16616 0.127,0.33056 0.185914,0.49777 v 0 l 0.167922,0.50589 0.08431,0.25259 c 0.02611,0.085 0.04974,0.17109 0.07444,0.25682 v 0 l 0.148872,0.51364 c 0.02646,0.085 0.04692,0.17216 0.06809,0.25929 v 0 l 0.06456,0.26035 c 0.04163,0.17392 0.0889,0.34643 0.127,0.52176 v 0 l 0.109361,0.52705 0.05503,0.26388 c 0.01976,0.0871 0.03104,0.1771 0.04727,0.26564 v 0 l 0.08996,0.5327 c 0.01411,0.0889 0.03246,0.17674 0.04339,0.2667 v 0 l 0.03493,0.26881 0.07126,0.53764 0.01729,0.13476 0.0127,0.13511 0.02575,0.27094 0.05186,0.54151 c 0.01517,0.18097 0.02293,0.36336 0.03457,0.54504 v 0 l 0.03281,0.54469 0.01517,0.54751 0.02858,1.16981 c 0.0035,0.10407 0.0035,0.20779 0.0095,0.31256 v 0 l 0.01658,0.31468 0.01729,0.31433 c 0.0032,0.0526 0.0049,0.10477 0.0092,0.15769 v 0 l 0.01376,0.15839 0.05609,0.63395 0.07832,0.63852 c 0.119239,0.85408 0.2921,1.7198 0.560917,2.59186 v 0 c 0.06138,0.21731 0.143581,0.43639 0.221545,0.65476 v 0 l 0.05891,0.16333 c 0.02187,0.0547 0.04516,0.10936 0.06773,0.16405 v 0 l 0.137936,0.32667 c 0.04304,0.10865 0.100894,0.21731 0.152753,0.32561 v 0 c 0.05327,0.1083 0.10548,0.21696 0.160866,0.32456 v 0 l 0.182386,0.32173 0.09208,0.16016 c 0.0314,0.0529 0.06738,0.10548 0.101248,0.15805 v 0 l 0.208138,0.31467 c 0.07197,0.10372 0.1524,0.20532 0.229306,0.30763 v 0 l 0.117122,0.1524 c 0.03916,0.0508 0.08396,0.0991 0.126295,0.14852 v 0 l 0.259291,0.2928 c 0.366184,0.37924 0.770114,0.73272 1.216731,1.03646 v 0 c 0.449439,0.29951 0.930275,0.55034 1.426986,0.74648 v 0 c 0.386997,0.14676 0.780344,0.25964 1.172986,0.34396 v 0 c -0.601813,0.29632 -1.209296,0.58172 -1.822071,0.85583 v 0 c -1.516944,0.67274 -3.065639,1.27705 -4.63938,1.79705 v 0 c -0.392289,0.13229 -0.788106,0.254 -1.183217,0.37747 v 0 l -0.595136,0.17533 c -0.198261,0.0596 -0.398286,0.11148 -0.5969,0.16757 v 0 c -0.796925,0.21766 -1.598083,0.41733 -2.402769,0.58949 v 0 c -1.608314,0.34184 -3.229681,0.59478 -4.841875,0.71332 v 0 c -0.201084,0.0141 -0.402167,0.0247 -0.603603,0.0374 v 0 c -0.200731,0.012 -0.400756,0.0159 -0.601486,0.0247 v 0 c -0.252942,0.007 -0.506236,0.0113 -0.757061,0.0113 v 0 c -0.14605,0 -0.291395,-0.001 -0.435328,-0.005"
       style="fill:#ffffff;stroke:none;stroke-width:0.352778" />
    <path
       id="path85"
       d="m 21.903872,94.856246 c -0.820208,0.01411 -1.633714,0.06667 -2.429933,0.170744 v 0 c -0.795867,0.105481 -1.572683,0.267758 -2.315281,0.493183 v 0 C 16.7893,95.636943 16.425233,95.76359 16.0781,95.917401 v 0 c -0.176742,0.07126 -0.343605,0.158397 -0.515055,0.238831 v 0 l -0.24765,0.132291 c -0.04127,0.02293 -0.08361,0.04304 -0.123473,0.06738 v 0 l -0.119944,0.07161 -0.120297,0.07161 -0.05997,0.03528 -0.05821,0.03845 -0.232128,0.152753 c -0.149225,0.109008 -0.302683,0.213431 -0.444147,0.331611 v 0 c -0.146403,0.112183 -0.281517,0.23742 -0.419805,0.358775 v 0 l -0.198614,0.191558 c -0.03387,0.0314 -0.06526,0.06491 -0.09666,0.09878 v 0 l -0.0949,0.100542 c -0.505883,0.536928 -0.932391,1.156053 -1.292225,1.828094 v 0 c -0.177447,0.338314 -0.341136,0.687214 -0.487186,1.048804 v 0 c -0.14358,0.36301 -0.277988,0.73307 -0.392994,1.11407 v 0 c -0.115006,0.381 -0.221544,0.76729 -0.31115,1.1624 v 0 c -0.04833,0.1958 -0.08749,0.39582 -0.130175,0.59408 v 0 c -0.02081,0.0998 -0.03845,0.20073 -0.05786,0.30092 v 0 c -0.01905,0.10019 -0.03916,0.20038 -0.05539,0.30198 v 0 c -0.140405,0.80363 -0.244475,1.62172 -0.323144,2.44863 v 0 c -0.03351,0.35031 -0.06209,0.70203 -0.08714,1.05481 v 0 c 0.238478,-0.25153 0.490714,-0.49001 0.754591,-0.71367 v 0 c 0.350662,-0.2974 0.720725,-0.57045 1.106311,-0.81527 v 0 c 0.749653,-0.47731 1.554692,-0.85161 2.383014,-1.12889 v 0 c 0.828675,-0.27729 1.680633,-0.45826 2.535061,-0.55457 v 0 c 1.710972,-0.19262 3.428647,-0.0504 5.068711,0.34149 v 0 c 0.820561,0.19685 1.624189,0.45403 2.401711,0.77188 v 0 c 0.776464,0.31926 1.527881,0.69426 2.249664,1.11654 v 0 l 0.26917,0.16122 c 0.0896,0.054 0.180269,0.10619 0.2667,0.1651 v 0 l 0.240947,0.15804 c 0.200378,0.14464 0.404989,0.28505 0.612775,0.42157 v 0 c 0.917575,0.60184 1.904647,1.12889 2.925939,1.59526 v 0 c 0.07655,0.0349 0.153105,0.0695 0.229658,0.10372 v 0 c 1.365955,0.60572 2.790472,1.10984 4.243916,1.52365 v 0 c 1.453445,0.41381 2.93617,0.74154 4.430536,0.98072 v 0 c 1.49472,0.23848 3.002492,0.39194 4.501444,0.43427 v 0 c 0.7493,0.0205 1.496131,0.013 2.234142,-0.03 v 0 c 0.737658,-0.043 1.46685,-0.12241 2.169936,-0.25259 v 0 c 0.351719,-0.0653 0.695677,-0.14323 1.0287,-0.23601 v 0 c 0.331258,-0.0942 0.650875,-0.20285 0.948266,-0.32949 v 0 c 0.147461,-0.0642 0.289984,-0.13159 0.424745,-0.20356 v 0 c 0.132644,-0.073 0.260702,-0.14851 0.375355,-0.22824 v 0 c 0.113947,-0.0804 0.218017,-0.16369 0.309386,-0.24801 v 0 c 0.09102,-0.085 0.166159,-0.17109 0.228953,-0.25646 v 0 c 0.125942,-0.17251 0.19685,-0.33655 0.2286,-0.52388 v 0 c 0.01588,-0.0938 0.02222,-0.19438 0.01834,-0.30374 v 0 c -0.0046,-0.10936 -0.02293,-0.22825 -0.05009,-0.35243 v 0 c -0.0254,-0.12347 -0.0702,-0.2547 -0.117122,-0.38735 v 0 c -3.53e-4,-0.001 -7.06e-4,-0.001 -0.0011,-0.003 v 0 c -0.02822,-0.0677 -0.0508,-0.13511 -0.08396,-0.20355 v 0 l -0.04616,-0.10297 -0.05186,-0.10407 c -0.138642,-0.27728 -0.312561,-0.55915 -0.509058,-0.83679 v 0 c -0.392289,-0.55668 -0.871008,-1.09714 -1.385358,-1.61537 v 0 c -0.51435,-0.51964 -1.070681,-1.01705 -1.645003,-1.49965 v 0 c -0.331258,-0.254 -0.586317,-0.45227 -0.925336,-0.69674 v 0 c -1.347964,-0.98813 -2.763308,-1.89265 -4.219927,-2.72732 v 0 c -0.729898,-0.41487 -1.470378,-0.8128 -2.220031,-1.193801 v 0 c -0.751064,-0.376962 -1.5113,-0.737148 -2.278944,-1.080401 v 0 c -1.537758,-0.681919 -3.107267,-1.294341 -4.703233,-1.821744 v 0 c -0.397934,-0.134408 -0.799747,-0.257881 -1.20015,-0.383117 v 0 l -0.604309,-0.1778 c -0.201083,-0.06068 -0.40393,-0.112889 -0.605719,-0.170039 v 0 c -0.809272,-0.221191 -1.622425,-0.423686 -2.440869,-0.599016 v 0 C 27.672847,95.307096 26.021494,95.049215 24.371552,94.92786 v 0 C 23.69563,94.87847 23.02253,94.85237 22.349783,94.85237 v 0 c -0.148519,0 -0.297039,0.0014 -0.445911,0.0039 M 11.30537,104.2772 c 0.276225,-1.56669 0.695325,-3.06176 1.363839,-4.315178 v 0 c 0.334786,-0.625122 0.726016,-1.191683 1.186038,-1.679928 v 0 l 0.08608,-0.09137 c 0.02858,-0.03104 0.05715,-0.06138 0.08819,-0.08961 v 0 l 0.180622,-0.174625 c 0.125941,-0.109713 0.248355,-0.224013 0.381353,-0.325613 v 0 c 0.128411,-0.10795 0.268463,-0.202495 0.40393,-0.301978 v 0 l 0.212372,-0.139347 0.05327,-0.03528 0.05468,-0.03246 0.11042,-0.06562 0.110066,-0.06562 c 0.03634,-0.02258 0.0755,-0.04092 0.113242,-0.06174 v 0 l 0.228247,-0.122061 c 0.158397,-0.07373 0.311503,-0.154517 0.47625,-0.220486 v 0 c 0.321734,-0.142875 0.662517,-0.261056 1.00965,-0.371123 v 0 c 0.6985,-0.212019 1.43757,-0.367241 2.201686,-0.468488 v 0 c 0.764822,-0.09984 1.552222,-0.150989 2.350911,-0.164748 v 0 c 0.400403,-0.0074 0.798689,-0.0035 1.199092,0.0074 v 0 c 0.20073,0.0088 0.400755,0.0127 0.601486,0.02505 v 0 c 0.201436,0.0127 0.402519,0.02258 0.603603,0.03739 v 0 c 1.612194,0.118534 3.233561,0.371475 4.841875,0.712964 v 0 c 0.804686,0.172509 1.605844,0.371828 2.402769,0.589845 v 0 c 0.198614,0.05609 0.398639,0.10795 0.5969,0.167569 v 0 l 0.595136,0.175331 c 0.395111,0.123472 0.790928,0.244475 1.183217,0.377472 v 0 c 1.573741,0.519994 3.122436,1.124303 4.63938,1.79705 v 0 c 0.757767,0.338666 1.507419,0.694264 2.248253,1.066444 v 0 c 0.739069,0.37536 1.468966,0.768 2.188633,1.17687 v 0 c 1.435805,0.82267 2.82963,1.71308 4.15431,2.68463 v 0 c 0.301978,0.21767 0.596548,0.44415 0.891117,0.66993 v 0 c 0.560564,0.47131 1.101372,0.95567 1.595967,1.45485 v 0 c 0.494594,0.49848 0.95003,1.01424 1.310569,1.52647 v 0 c 0.180975,0.25541 0.337256,0.50941 0.456142,0.74825 v 0 l 0.0448,0.0889 0.0381,0.0868 c 0.02822,0.0582 0.04621,0.11218 0.06985,0.16756 v 0 c 0.01023,0.0268 0.01799,0.0529 0.02752,0.079 v 0 l 0.01376,0.0392 c 0.0046,0.0127 0.0074,0.025 0.01129,0.0374 v 0 l 0.02187,0.0737 c 0.0049,0.0226 0.01023,0.0455 0.01623,0.0684 v 0 c 0.0187,0.0882 0.03105,0.16722 0.03351,0.23037 v 0 c 0.0018,0.0631 -0.0021,0.11253 -0.0088,0.15346 v 0 c -0.01411,0.0811 -0.03598,0.13546 -0.104422,0.23212 v 0 c -0.03493,0.0469 -0.08043,0.10125 -0.143228,0.15981 v 0 c -0.0635,0.0582 -0.141111,0.12101 -0.230717,0.1838 v 0 c -0.08996,0.0632 -0.195791,0.12524 -0.307975,0.18732 v 0 c -0.113947,0.061 -0.238478,0.11995 -0.369005,0.17639 v 0 c -0.263525,0.11254 -0.555978,0.21202 -0.862895,0.29986 v 0 c -0.309033,0.0861 -0.633589,0.15946 -0.966964,0.2212 v 0 c -0.667102,0.12347 -1.369836,0.20073 -2.083858,0.24271 v 0 c -0.71508,0.0416 -1.442508,0.0483 -2.174169,0.0286 v 0 c -1.464044,-0.0413 -2.943593,-0.19155 -4.410443,-0.42544 v 0 c -1.467556,-0.23495 -2.924175,-0.55704 -4.350103,-0.96308 v 0 c -1.425575,-0.4057 -2.820811,-0.89959 -4.151841,-1.49014 v 0 c -1.070681,-0.4766 -2.100792,-1.01953 -3.045178,-1.63759 v 0 c -0.109714,-0.0787 -0.219781,-0.15699 -0.3302,-0.23531 v 0 l -0.281164,-0.18485 c -0.01834,-0.0134 -0.03739,-0.0265 -0.05574,-0.0402 v 0 l -0.0018,0.002 -0.204964,-0.13441 c -0.0896,-0.061 -0.183797,-0.11536 -0.27693,-0.17145 v 0 l -0.279753,-0.16722 c -0.750006,-0.4392 -1.531056,-0.82902 -2.33927,-1.16099 v 0 c -0.808919,-0.3309 -1.646766,-0.59866 -2.502605,-0.80433 v 0 c -1.711325,-0.40887 -3.507669,-0.5588 -5.308952,-0.35631 v 0 c -0.899584,0.1016 -1.799167,0.2921 -2.677584,0.58597 v 0 c -0.877711,0.29386 -1.734608,0.69215 -2.535061,1.20156 v 0 c -0.216605,0.13758 -0.428625,0.28399 -0.636058,0.4378 v 0 c 0.06597,-0.5768 0.145697,-1.14547 0.243417,-1.70498"
       style="fill:#ffffff;stroke:none;stroke-width:0.352778" />
    <path
       id="path86"
       d="M 0,0 V 42.001 H 3.865 V -6.442 H -0.129 L -32.724,35.817 V -6.442 h -4.123 v 48.443 h 4.251 z"
       style="fill:#ffffff;fill-opacity:1;fill-rule:nonzero;stroke:none"
       transform="matrix(0.35277776,0,0,-0.35277776,91.300625,115.70893)"
       clip-path="url(#clipPath87)" />
    <path
       id="path88"
       d="M 0,0 C -15.041,-1.816 -11.829,-29.86 5.347,-24.93 16.865,-21.624 15.708,1.897 0,0 m 16.805,19.655 v -48.442 l -3.351,-0.002 -0.259,6.958 -1.806,-2.699 c -9.119,-9.48 -23.274,-3.684 -24.957,9.045 -2.007,15.177 11.102,25.04 23.905,15.659 l 2.603,-3.709 v 23.19 z"
       style="fill:#ffffff;fill-opacity:1;fill-rule:nonzero;stroke:none"
       transform="matrix(0.35277776,0,0,-0.35277776,146.4576,107.82593)"
       clip-path="url(#clipPath89)" />
    <path
       id="path90"
       d="M 0,0 C 0.206,5.474 -2.493,10.402 -8.363,10.833 -15.817,11.381 -20.046,7.282 -20.614,0 Z m 3.865,-2.834 h -24.736 c 0.24,-5.785 2.435,-11.987 8.955,-12.818 6.289,-0.802 10.74,2.326 12.207,8.404 0.661,-0.033 3.673,0.328 3.787,-0.345 -1.004,-4.089 -3.346,-7.898 -7.249,-9.721 -0.847,-0.395 -1.835,-0.527 -2.673,-0.934 -3.221,-1.562 -8.544,-6.573 -6.01,-10.484 1.799,-2.776 5.869,-1.432 8.48,-0.923 l 0.435,-1.791 c -8.673,-4.548 -16.194,2.674 -9.309,10.583 l 2.455,2.05 C -22.809,-19.635 -27.472,-6.27 -23.889,4.434 -20.121,15.687 -2.685,17.703 2.366,6.876 2.837,5.867 3.865,2.664 3.865,1.675 Z"
       style="fill:#ffffff;fill-opacity:1;fill-rule:nonzero;stroke:none"
       transform="matrix(0.35277776,0,0,-0.35277776,137.75111,111.43658)"
       clip-path="url(#clipPath91)" />
    <path
       id="path92"
       d="m 0,0 c -4.992,1.434 -19.012,2.57 -19.558,-4.995 -0.649,-8.979 16.03,-8.299 18.864,-2.102 C 0.302,-4.917 0.024,-2.33 0,0 m 8.538,-11.56 v -3.094 c -3.628,-0.194 -7.412,0.401 -7.992,4.637 l -1.678,-1.796 c -6.089,-4.929 -21.275,-4.782 -22.251,5.051 -1.189,11.977 15.816,12.036 23.673,9.89 -0.317,3.931 0.042,7.724 -3.787,9.996 -5.189,3.081 -13.337,0.771 -17.47,-3.294 l -1.815,2.835 c 4.789,4.394 11.559,6.144 17.929,4.771 C 7.783,14.714 3.279,0.63 4.146,-8.607 c 0.256,-2.725 1.912,-3.059 4.392,-2.953"
       style="fill:#ffffff;fill-opacity:1;fill-rule:nonzero;stroke:none"
       transform="matrix(0.35277776,0,0,-0.35277776,181.64453,112.81227)"
       clip-path="url(#clipPath93)" />
    <path
       id="path94"
       d="m 0,0 c -4.992,1.434 -19.012,2.57 -19.558,-4.995 -0.649,-8.979 16.03,-8.299 18.864,-2.102 C 0.302,-4.917 0.024,-2.33 0,0 m 8.538,-11.56 v -3.094 c -3.628,-0.194 -7.412,0.401 -7.992,4.637 l -1.678,-1.796 c -6.089,-4.929 -21.275,-4.782 -22.251,5.051 -1.189,11.977 15.816,12.036 23.673,9.89 -0.316,3.931 0.042,7.724 -3.787,9.996 -5.189,3.081 -13.337,0.771 -17.47,-3.294 l -1.815,2.835 c 4.789,4.394 11.559,6.144 17.929,4.771 C 7.783,14.714 3.279,0.63 4.146,-8.607 c 0.256,-2.725 1.912,-3.059 4.392,-2.953"
       style="fill:#ffffff;fill-opacity:1;fill-rule:nonzero;stroke:none"
       transform="matrix(0.35277776,0,0,-0.35277776,104.28764,112.81227)"
       clip-path="url(#clipPath95)" />
    <path
       id="path96"
       d="m 0,0 -0.243,-3.751 -23.205,-25.108 h 22.675 v -3.35 h -28.086 l 0.243,3.751 22.562,24.076 0.385,0.775 H -28.086 V 0 Z"
       style="fill:#ffffff;fill-opacity:1;fill-rule:nonzero;stroke:none"
       transform="matrix(0.35277776,0,0,-0.35277776,165.74868,106.61883)"
       clip-path="url(#clipPath97)" />
    <path
       id="path98"
       d="m 0,0 -0.243,-3.751 -23.205,-25.108 h 22.675 v -3.35 h -28.086 l 0.243,3.751 22.562,24.076 0.385,0.775 H -28.086 V 0 Z"
       style="fill:#ffffff;fill-opacity:1;fill-rule:nonzero;stroke:none"
       transform="matrix(0.35277776,0,0,-0.35277776,127.38836,106.61883)"
       clip-path="url(#clipPath99)" />
    <path
       id="path100"
       d="m 0,0 v -4.123 c -3.621,0.218 -7.699,-0.779 -9.904,-3.881 -0.262,-0.369 -1.691,-3.228 -1.691,-3.462 v -21.258 h -4.123 v 32.209 h 3.607 c 0.346,-1.758 0.167,-3.521 0.258,-5.287 0.015,-0.291 -0.168,-0.708 0.254,-0.638 C -9.51,-1.812 -4.822,-0.065 0,0"
       style="fill:#ffffff;fill-opacity:1;fill-rule:nonzero;stroke:none"
       transform="matrix(0.35277776,0,0,-0.35277776,115.75304,106.43701)"
       clip-path="url(#clipPath101)" />
    <path
       id="path102"
       d="m 0,0 h -4.123 v 32.209 h 3.737 L 0,31.823 Z"
       style="fill:#ffffff;fill-opacity:1;fill-rule:nonzero;stroke:none"
       transform="matrix(0.35277776,0,0,-0.35277776,170.29372,117.98149)"
       clip-path="url(#clipPath103)" />
    <path
       id="path104"
       d="m 809.591,802.302 h -4.123 v 5.669 h 4.123 z"
       style="fill:#ffffff;fill-opacity:1;fill-rule:nonzero;stroke:none"
       transform="matrix(0.35277776,0,0,-0.35277776,-115.31186,385.5624)"
       clip-path="url(#clipPath105)" />
    <path
       id="path106"
       d="m 897.366,699.896 h -4.123 v 5.669 h 4.123 z"
       style="fill:#ffffff;fill-opacity:1;fill-rule:nonzero;stroke:none"
       transform="matrix(0.35277776,0,0,-0.35277776,-115.31186,385.5624)"
       clip-path="url(#clipPath107)" />
  </g>
</svg>
