<svg xmlns="http://www.w3.org/2000/svg" xmlns:xlink="http://www.w3.org/1999/xlink" viewBox="0 0 162 172"><defs><radialGradient id="a" cx="66.55" cy="89.26" fx="66.55" fy="89.26" r="113.06" gradientUnits="userSpaceOnUse"><stop offset="0" stop-color="#c700ff"/><stop offset=".43" stop-color="#ff0063"/><stop offset=".72" stop-color="#9b78ff"/><stop offset="1" stop-color="#2a78ff"/></radialGradient><radialGradient id="b" cx="66.55" fx="66.55" r="113.06" xlink:href="#a"/><radialGradient id="c" cy="89.26" fy="89.26" r="113.06" xlink:href="#a"/><radialGradient id="d" cy="89.26" fy="89.26" r="113.06" xlink:href="#a"/><radialGradient id="e" cx="66.55" cy="89.26" fx="66.55" fy="89.26" r="113.06" xlink:href="#a"/></defs><g style="opacity:.09"><path d="M141.07 60.99c-.42-.67-.85-1.33-1.3-1.99-.08.24-.17.47-.27.69-.21.48-.45.94-.72 1.37-.16.27-.34.53-.52.77-.48.65-1.01 1.24-1.56 1.76s-1.13.97-1.71 1.38c-.59.41-1.18.76-1.78 1.08-.6.32-1.2.6-1.8.86-2.4 1.02-4.79 1.63-7.16 2.07-2.37.44-4.72.69-7.06.83s-4.66.16-6.97.09c-4.62-.13-9.19-.6-13.72-1.32-4.52-.73-9-1.71-13.42-2.97-.7-.2-1.4-.41-2.1-.62-.98-.3-1.95-.61-2.92-.94.55.86 1.1 1.71 1.61 2.6.03.05.06.11.09.16l.44.76.22.38.21.39.81 1.55.2.39c.07.13.13.26.19.39l.37.79.37.79.19.4c.06.13.12.27.17.4.45 1.07.93 2.14 1.32 3.23.2.54.42 1.09.61 1.63l.55 1.65.27.83c.08.28.16.56.24.83l.48 1.67c.08.28.15.56.22.84l.21.84c.14.56.28 1.12.41 1.68l.35 1.69.18.85c.06.28.1.57.15.85l.29 1.7c.05.28.1.57.14.85l.11.85.22 1.71.05.43.04.43.08.86.16 1.71c.05.57.07 1.14.11 1.71l.1 1.71.05 1.71.08 3.29c0 .26 0 .52.02.78l.04.78.04.78c0 .13.01.26.02.39l.03.39.14 1.54.19 1.52c.28 2.02.68 3.99 1.26 5.85.13.47.3.92.46 1.37l.12.34c.04.11.09.22.14.33l.27.65c.08.22.2.42.3.63l.3.62.34.59.17.3c.06.1.12.19.18.28l.36.56c.13.18.26.35.39.52l.2.26c.06.09.14.16.21.24l.42.48c.59.6 1.21 1.15 1.89 1.61.69.45 1.41.83 2.18 1.14.78.29 1.6.51 2.46.66.86.14 1.76.2 2.67.21.92 0 1.86-.08 2.8-.19 1.9-.27 3.82-.73 5.73-1.37.96-.31 1.9-.68 2.85-1.06.94-.4 1.88-.81 2.81-1.26 1.49-.72 2.96-1.52 4.4-2.37l1.05-.63a70.18 70.18 0 0 0 5.17-3.52 65.75 65.75 0 0 0 4.78-3.97c.75-.7 1.48-1.41 2.16-2.13.68-.72 1.31-1.47 1.85-2.19.47-.54.7-.83 1.55-2.07 2.61-3.8 4.87-7.81 6.41-12.05 1.55-4.23 2.4-8.66 2.4-13.09s-.85-8.86-2.4-13.09c-1.19-3.27-2.78-6.41-4.66-9.41zm2.8 34.93c-1.47 4.04-3.6 7.93-6.17 11.59-.48.69-.99 1.38-1.51 2.05l-1.72 2c-.64.68-1.34 1.37-2.06 2.04-1.44 1.34-3.01 2.62-4.62 3.84a65.27 65.27 0 0 1-5.02 3.42 60.389 60.389 0 0 1-5.27 2.91c-.89.44-1.8.83-2.7 1.22-.9.36-1.81.72-2.72 1.01-1.81.61-3.62 1.04-5.37 1.29-.87.11-1.72.17-2.54.18-.81-.01-1.61-.06-2.34-.18-.73-.13-1.43-.32-2.07-.56-.64-.26-1.23-.57-1.79-.94-.55-.38-1.06-.83-1.56-1.33l-.35-.41c-.06-.07-.12-.13-.18-.2l-.17-.22c-.11-.15-.23-.29-.34-.45l-.32-.49c-.05-.08-.11-.16-.16-.24l-.15-.26-.3-.52-.27-.56c-.09-.19-.19-.36-.27-.57l-.25-.59c-.04-.1-.09-.2-.13-.3l-.11-.31c-.15-.42-.31-.82-.43-1.27-.53-1.73-.92-3.6-1.19-5.53l-.18-1.46-.13-1.49-.03-.37c0-.12-.01-.25-.02-.38l-.04-.76-.04-.76c-.01-.25-.01-.51-.02-.76l-.08-3.28-.05-1.75-.1-1.75c-.04-.58-.06-1.16-.11-1.75l-.17-1.75-.08-.87-.04-.44-.06-.44-.23-1.75-.12-.87c-.04-.29-.09-.58-.14-.87l-.29-1.74c-.05-.29-.09-.58-.16-.87l-.18-.87-.36-1.73c-.13-.58-.28-1.15-.42-1.73l-.21-.86c-.07-.29-.14-.58-.23-.86l-.49-1.71c-.08-.29-.16-.57-.25-.86l-.28-.85-.56-1.7c-.2-.56-.42-1.12-.63-1.68-.4-1.12-.89-2.22-1.36-3.32-.06-.14-.11-.28-.18-.41l-.19-.41-.38-.81-.39-.81c-.07-.14-.13-.27-.19-.41l-.21-.4-.8-1.52s.1.03.15.04c4.49 1.28 9.04 2.28 13.64 3.02 4.6.73 9.26 1.21 13.98 1.34 2.36.06 4.74.04 7.14-.1 2.4-.14 4.83-.4 7.3-.86 2.47-.46 4.99-1.1 7.58-2.2.65-.28 1.3-.59 1.95-.94.66-.36 1.31-.75 1.97-1.2.65-.46 1.31-.97 1.94-1.56.63-.59 1.24-1.27 1.8-2.03l.08-.11c1.58 2.63 2.93 5.37 3.95 8.18 1.48 4.04 2.28 8.23 2.28 12.42 0 4.19-.8 8.38-2.28 12.42z" style="fill:url(#a)"/><path d="M150.12 68.81c-1.71-4.69-4.13-9.08-6.98-13.14-.26-.38-.53-.75-.81-1.12-.85-1.16-1.74-2.29-2.66-3.4-.37-.44-.74-.88-1.12-1.32a89.493 89.493 0 0 0-5.1-5.39 103.41 103.41 0 0 0-5.51-4.95c-.48-.39-.94-.79-1.43-1.18l-1.45-1.15c-.98-.75-1.95-1.5-2.95-2.23-3.98-2.91-8.13-5.57-12.4-8.02-2.14-1.22-4.31-2.38-6.5-3.5-2.2-1.1-4.42-2.16-6.67-3.16-4.5-1.99-9.09-3.79-13.76-5.33-1.17-.39-2.34-.75-3.52-1.12l-1.77-.52c-.59-.18-1.19-.33-1.78-.5-2.37-.65-4.77-1.24-7.17-1.76-4.82-1.02-9.7-1.79-14.63-2.15-2.46-.18-4.94-.26-7.42-.21-2.47.04-4.95.2-7.42.52-2.47.33-4.92.83-7.32 1.56-1.2.38-2.39.79-3.54 1.3-.58.24-1.15.53-1.72.8l-.84.45c-.14.08-.28.15-.42.23l-.41.24-.41.24-.2.12-.2.13-.79.52c-.51.37-1.04.73-1.53 1.14-.5.39-.97.82-1.45 1.24l-.69.66c-.12.11-.23.22-.33.34l-.33.35c-1.74 1.85-3.19 3.96-4.37 6.18-.59 1.12-1.12 2.25-1.59 3.42-.46 1.16-.89 2.34-1.25 3.54-.36 1.19-.69 2.4-.97 3.61-.15.6-.27 1.21-.4 1.82l-.18.91c-.06.3-.12.61-.17.91-.8 4.57-1.19 9.17-1.43 13.76-.02.31-.03.63-.05.94-.05 1.17-.1 2.33-.13 3.49-.11 3.74-.14 7.48-.15 11.21v14.67c0 4.89-.02 9.78.03 14.68s.17 9.8.48 14.71c.16 2.45.37 4.91.65 7.35.29 2.45.65 4.89 1.13 7.32.47 2.43 1.07 4.84 1.83 7.22.09.3.19.59.29.89.1.29.2.59.31.88.22.58.43 1.17.67 1.75.46 1.16.99 2.3 1.57 3.41l.44.83c.15.27.31.55.47.82l.24.41.25.4c.17.27.33.53.51.8.7 1.05 1.46 2.06 2.28 3.02.83.95 1.71 1.86 2.66 2.71.23.21.48.41.72.62l.36.31.38.29c.25.19.5.39.76.57l.78.54c1.05.7 2.14 1.35 3.28 1.91.56.3 1.14.54 1.72.8.29.13.58.23.88.35.29.11.58.24.88.33 2.37.85 4.81 1.45 7.28 1.83 2.47.38 4.95.58 7.43.63 2.48.05 4.95-.03 7.42-.21 4.93-.36 9.81-1.13 14.63-2.15 2.41-.52 4.8-1.11 7.17-1.76.59-.17 1.19-.32 1.78-.5l1.77-.52c1.17-.37 2.35-.73 3.52-1.12 4.67-1.54 9.26-3.34 13.76-5.33 2.25-1 4.47-2.06 6.67-3.16 2.19-1.11 4.36-2.28 6.5-3.5 1.73-.99 3.44-2.02 5.13-3.08 2.48-1.56 4.91-3.2 7.27-4.93.22-.16.44-.32.66-.49.77-.57 1.53-1.16 2.29-1.74l1.45-1.15c.48-.38.95-.78 1.43-1.18 1.89-1.58 3.73-3.23 5.51-4.95 1.77-1.72 3.47-3.52 5.1-5.39 1.62-1.87 3.17-3.81 4.59-5.84 2.85-4.06 5.27-8.45 6.98-13.14.85-2.34 1.53-4.76 1.98-7.22.46-2.46.69-4.96.7-7.47 0-2.51-.24-5.01-.7-7.47-.46-2.46-1.13-4.88-1.98-7.22zM11.93 39.23c.05-.3.11-.59.16-.89.06-.3.11-.59.17-.89.13-.59.24-1.18.39-1.76.27-1.17.58-2.33.93-3.47.35-1.15.75-2.27 1.19-3.38.45-1.1.95-2.18 1.5-3.23 1.12-2.09 2.46-4.05 4.07-5.76l.3-.32c.1-.11.2-.21.31-.31l.63-.61c.44-.39.87-.79 1.34-1.14.45-.38.94-.71 1.41-1.05l.74-.49.18-.12.19-.11.38-.23.38-.23c.13-.08.26-.14.39-.21l.78-.42c.53-.25 1.06-.52 1.61-.75 1.08-.48 2.21-.87 3.34-1.23 2.28-.69 4.62-1.18 7-1.49 2.38-.31 4.79-.47 7.2-.51 2.41-.04 4.83.03 7.24.21 4.82.36 9.62 1.11 14.36 2.11 2.37.51 4.73 1.09 7.07 1.73.58.16 1.17.32 1.75.49l1.75.51c1.16.36 2.32.72 3.47 1.11 4.61 1.52 9.14 3.29 13.58 5.26 2.22.99 4.41 2.03 6.58 3.12 2.16 1.1 4.3 2.25 6.41 3.45 4.21 2.41 8.31 5.03 12.22 7.9.94.67 1.85 1.38 2.76 2.08 1.68 1.41 3.31 2.88 4.85 4.42 1.53 1.55 2.98 3.17 4.22 4.92.62.87 1.18 1.78 1.65 2.72l.17.35.16.36c.11.24.2.48.3.72.15.43.3.86.4 1.3.01.05.03.11.04.16.11.49.18.98.21 1.47.02.49 0 .97-.09 1.44 0 .06-.02.11-.03.17-.17.88-.55 1.71-1.09 2.44-.29.39-.62.76-.98 1.1-.37.34-.77.66-1.18.95-.42.29-.87.56-1.32.81-.46.25-.94.47-1.42.68-.97.41-1.99.76-3.02 1.05-1.03.29-2.09.53-3.15.72-2.13.39-4.3.63-6.48.76-2.18.13-4.37.15-6.57.09-4.39-.12-8.77-.57-13.11-1.26-4.34-.7-8.65-1.65-12.87-2.85-2.65-.76-5.28-1.62-7.85-2.59-1.33-.5-2.65-1.04-3.96-1.61-.19-.08-.38-.16-.57-.25-3.25-1.45-6.42-3.11-9.38-5.06-.31-.22-.62-.45-.93-.67l-.81-.53c-.09-.06-.18-.12-.26-.19s-.33-.21-.33-.21c-.23-.16-.48-.3-.72-.44l-.72-.43a48.295 48.295 0 0 0-6.03-2.99 43.63 43.63 0 0 0-6.42-2.06c-4.37-1.05-8.93-1.42-13.44-.91-2.25.25-4.48.73-6.63 1.45-2.16.72-4.24 1.69-6.16 2.92a25.47 25.47 0 0 0-4.88 4.03c-.12.13-.24.25-.35.38-.63.7-1.21 1.43-1.75 2.2-.78 1.1-1.48 2.27-2.07 3.48-.29.6-.56 1.2-.8 1.82.04-1.93.1-3.87.19-5.8 0-.13.01-.27.02-.4.06-1.19.13-2.39.21-3.58.24-3.52.61-7.02 1.22-10.48zm113.35 87.92-1.42 1.13c-.96.74-1.92 1.48-2.9 2.19-2.26 1.65-4.58 3.22-6.94 4.72-1.74 1.1-3.49 2.16-5.28 3.18-.04.02-.09.05-.13.07-2.07 1.17-4.16 2.3-6.28 3.38-2.17 1.09-4.36 2.13-6.58 3.12-4.44 1.97-8.97 3.74-13.58 5.26-1.15.39-2.31.74-3.47 1.11l-1.75.51c-.58.18-1.17.33-1.75.49-2.34.64-4.7 1.23-7.07 1.73-4.74 1.01-9.54 1.76-14.36 2.11-4.82.34-9.67.34-14.4-.4-2.36-.37-4.68-.94-6.92-1.74-.28-.09-.56-.21-.83-.32-.27-.11-.55-.21-.82-.33-.54-.25-1.09-.47-1.61-.75-1.06-.52-2.08-1.13-3.06-1.78l-.73-.5c-.24-.17-.47-.36-.7-.53l-.35-.27-.34-.28c-.22-.19-.45-.38-.67-.57-.88-.79-1.7-1.63-2.47-2.52-.76-.9-1.48-1.84-2.13-2.83l-.48-.75-.24-.38-.22-.39c-.15-.26-.3-.51-.44-.77l-.42-.79c-.54-1.06-1.05-2.14-1.49-3.25-.23-.55-.43-1.11-.64-1.67-.1-.28-.2-.57-.29-.85-.1-.28-.2-.57-.28-.85-.72-2.29-1.31-4.63-1.77-6.99-.46-2.37-.82-4.76-1.1-7.17-.28-2.41-.48-4.83-.64-7.25-.31-4.85-.43-9.72-.48-14.6-.05-4.88-.03-9.76-.02-14.65V70.88c.01-2.14.21-4.27.64-6.35a25.7 25.7 0 0 1 2.02-6c.05-.1.11-.21.16-.31.6-1.18 1.3-2.3 2.09-3.36.4-.54.83-1.06 1.27-1.56 1.41-1.57 3.04-2.93 4.82-4.07 1.78-1.13 3.72-2.04 5.73-2.71a30.64 30.64 0 0 1 6.23-1.36c4.25-.48 8.58-.13 12.76.87 2.09.5 4.14 1.16 6.13 1.97 1.99.82 3.92 1.78 5.78 2.87l.69.41c.23.14.46.27.69.42l.54.35c.57.41 1.15.81 1.73 1.19.57.41 1.13.82 1.67 1.26 1.69 1.34 3.3 2.77 4.79 4.33.61.64 1.22 1.29 1.8 1.96.84.95 1.64 1.94 2.4 2.96l.22.29.27.35.46.66c.31.44.62.88.92 1.33.57.91 1.18 1.81 1.7 2.76l.41.7.2.35c.07.12.13.24.19.36l.75 1.44.19.36c.06.12.12.24.17.37l.35.73.35.73.17.37c.06.12.11.25.16.37.42 1 .86 1.99 1.23 3.01.19.51.39 1.01.57 1.52l.51 1.54.26.77c.08.26.15.52.23.78l.45 1.56c.08.26.14.52.21.79l.2.79c.13.53.27 1.05.38 1.58l.33 1.59.17.8c.06.26.09.53.14.8l.27 1.61c.04.27.1.53.13.8l.11.81.21 1.62.05.4.04.41.08.81.15 1.62c.05.54.07 1.09.1 1.63l.1 1.63.04 1.63.08 3.3c0 .28 0 .56.02.83l.05.84.05.84c0 .14.01.28.02.42l.04.42.15 1.67.21 1.67c.31 2.22.75 4.43 1.42 6.6.15.55.36 1.08.55 1.61l.14.4c.05.13.11.26.16.4l.33.79c.1.27.24.52.36.78l.38.77.43.75.21.37c.07.12.16.24.23.36l.48.72c.17.24.35.46.52.7l.26.35c.09.12.19.22.28.33l.58.66c.81.84 1.7 1.61 2.67 2.27.98.65 2.02 1.2 3.11 1.63 1.1.41 2.23.71 3.37.91 1.15.19 2.3.27 3.45.28.97 0 1.93-.07 2.89-.17l.53-.06c1.79-.25 3.55-.64 5.27-1.16.44-.13.88-.27 1.31-.42 1.07-.35 2.12-.76 3.16-1.17 1.03-.44 2.06-.88 3.06-1.38 1.73-.83 3.4-1.75 5.04-2.73l-.17.14zm22.98-29.63c-1.64 4.5-3.98 8.74-6.74 12.68-.5.72-1.03 1.43-1.56 2.13l-.02-.02c-1.25 1.68-2.76 3.24-4.34 4.7a62 62 0 0 1-4.99 4.15 71.57 71.57 0 0 1-5.37 3.66 64.49 64.49 0 0 1-4.93 2.76c-.25.13-.5.25-.76.37-.97.48-1.96.91-2.95 1.33-1 .4-2 .8-3.03 1.13-.5.17-1.01.33-1.52.48a33.2 33.2 0 0 1-4.71 1.01c-1.05.13-2.11.21-3.16.22-1.05-.01-2.1-.08-3.12-.25-1.02-.18-2.02-.45-2.99-.81-.95-.38-1.87-.86-2.72-1.42-.85-.58-1.62-1.26-2.34-2l-.51-.58c-.08-.1-.17-.19-.25-.29l-.24-.31c-.15-.21-.32-.41-.47-.62l-.43-.65c-.07-.11-.15-.22-.21-.33l-.19-.34-.39-.68-.35-.71c-.11-.24-.24-.47-.34-.72l-.31-.73c-.05-.12-.1-.24-.15-.37l-.13-.37c-.18-.5-.37-1-.51-1.51-.63-2.04-1.06-4.15-1.35-6.28l-.2-1.61-.14-1.62-.04-.4c-.01-.13-.02-.27-.02-.41l-.04-.81-.04-.81c-.02-.27-.02-.54-.02-.81l-.08-3.29-.05-1.67-.1-1.66c-.04-.55-.06-1.11-.11-1.66l-.16-1.66-.08-.83-.04-.42-.05-.41-.22-1.65-.11-.83c-.03-.28-.09-.55-.13-.82l-.28-1.65c-.05-.27-.09-.55-.15-.82l-.17-.82-.34-1.64c-.12-.54-.26-1.08-.39-1.62l-.2-.81c-.07-.27-.13-.54-.21-.81L83.35 82c-.08-.27-.15-.54-.23-.8l-.26-.79-.53-1.59c-.19-.53-.39-1.05-.59-1.57-.38-1.05-.83-2.07-1.27-3.1-.06-.13-.11-.26-.17-.38l-.18-.38-.36-.76-.36-.76c-.06-.13-.12-.25-.18-.38l-.19-.37-.78-1.48c-.07-.12-.13-.25-.2-.37l-.21-.36-.42-.73c-.54-.98-1.16-1.91-1.76-2.86-.31-.46-.63-.91-.95-1.37l-.48-.69-.51-.67c-.04-.05-.08-.1-.11-.15-1.21-1.63-2.54-3.16-3.94-4.63.5.24 1.01.47 1.51.69 1.36.6 2.73 1.17 4.12 1.7 1.11.43 2.22.83 3.34 1.22 1.72.59 3.45 1.13 5.19 1.63 4.31 1.23 8.68 2.19 13.1 2.9 4.42.7 8.88 1.16 13.37 1.29 2.24.06 4.49.04 6.74-.09s4.5-.37 6.73-.79c2.23-.41 4.45-.99 6.59-1.9.53-.23 1.06-.48 1.58-.76s1.03-.58 1.51-.92c.49-.34.96-.72 1.41-1.13.44-.42.86-.88 1.23-1.38.37-.5.69-1.05.94-1.63 0-.02.02-.04.02-.06.24-.56.41-1.15.51-1.75.04-.24.07-.48.09-.73.03-.38.04-.77.03-1.14-.03-.62-.12-1.23-.25-1.82-.13-.59-.32-1.16-.52-1.72-.11-.27-.21-.55-.34-.82l-.03-.06c.17.2.35.39.52.59 1.15 1.33 2.27 2.7 3.32 4.11.39.52.77 1.05 1.14 1.58.21.3.41.6.62.9 2.49 3.68 4.61 7.62 6.12 11.78 1.64 4.49 2.56 9.25 2.56 14.02s-.92 9.52-2.56 14.02z" style="fill:url(#b)"/><path d="M156.69 75.18c-.51-2.73-1.25-5.4-2.19-7.97-1.88-5.15-4.51-9.9-7.55-14.24-1.52-2.17-3.17-4.23-4.88-6.21a93.241 93.241 0 0 0-5.37-5.68c-1.86-1.8-3.79-3.53-5.76-5.18-.5-.41-.99-.83-1.49-1.23l-1.51-1.2c-1.02-.78-2.03-1.56-3.07-2.31-4.13-3.03-8.43-5.77-12.85-8.3-2.21-1.26-4.45-2.46-6.71-3.61a156.384 156.384 0 0 0-21.07-8.76c-1.2-.41-2.42-.78-3.63-1.16l-1.83-.54c-.61-.18-1.23-.34-1.84-.52-2.46-.67-4.93-1.29-7.43-1.82-5-1.06-10.09-1.86-15.27-2.24-.65-.05-1.3-.08-1.95-.12-.65-.04-1.31-.05-1.96-.08-1.31-.04-2.62-.05-3.93-.03-2.62.05-5.28.21-7.96.56-2.68.36-5.39.91-8.08 1.73-1.35.42-2.69.89-4.02 1.48-.67.27-1.32.6-1.97.92l-.97.52c-.16.09-.32.17-.48.26l-.48.28-.48.28-.24.14-.23.15-.93.61c-.6.43-1.22.86-1.79 1.34-.59.46-1.15.96-1.7 1.46l-.81.78c-.14.13-.27.26-.39.4l-.39.41-.38.41-.37.42-.36.42-.18.21-.17.22-.69.87-.65.9c-.84 1.21-1.61 2.45-2.28 3.72a43.35 43.35 0 0 0-1.8 3.86c-.52 1.3-.99 2.61-1.38 3.91-.4 1.31-.75 2.62-1.05 3.92-.16.65-.29 1.3-.43 1.95-.07.33-.13.65-.19.97-.06.32-.13.65-.18.97-.9 5.18-1.3 10.28-1.54 15.3-.23 5.03-.28 9.99-.29 14.91v14.67c0 4.88-.02 9.78.03 14.73.05 4.94.17 9.93.49 14.96.16 2.52.38 5.05.67 7.6.3 2.55.68 5.11 1.18 7.68a69.1 69.1 0 0 0 1.96 7.74c.1.32.21.64.32.97.11.32.21.64.33.97.24.64.47 1.29.74 1.92.51 1.28 1.1 2.55 1.75 3.8l.5.94c.17.31.35.62.53.93l.27.46.29.46c.19.3.38.61.58.91.8 1.2 1.68 2.36 2.63 3.48a34.02 34.02 0 0 0 3.09 3.15c.27.25.56.48.84.72l.42.36.44.34c.29.22.58.45.88.67l.91.63c1.23.82 2.49 1.57 3.8 2.21.65.34 1.31.62 1.97.92.33.14.67.27 1 .4.33.13.67.27 1.01.38 2.69.96 5.43 1.63 8.14 2.05 2.71.42 5.41.63 8.07.68 1.33.03 2.64.02 3.95-.02.65-.03 1.31-.04 1.96-.08.65-.04 1.3-.07 1.95-.12 5.18-.38 10.27-1.18 15.27-2.24 2.5-.54 4.98-1.15 7.43-1.82.61-.17 1.23-.33 1.84-.52l1.83-.54c1.21-.38 2.43-.75 3.63-1.16 4.82-1.59 9.55-3.44 14.19-5.5 2.32-1.04 4.61-2.12 6.88-3.26 2.26-1.15 4.5-2.35 6.71-3.61 4.41-2.53 8.71-5.28 12.85-8.3 1.04-.75 2.05-1.53 3.07-2.31l1.51-1.2c.5-.4.99-.82 1.49-1.23 1.97-1.65 3.9-3.38 5.76-5.18 1.86-1.81 3.66-3.7 5.37-5.68 1.71-1.98 3.36-4.04 4.88-6.21 3.05-4.34 5.68-9.09 7.55-14.24.94-2.57 1.68-5.24 2.19-7.97.51-2.73.77-5.52.77-8.32 0-2.8-.27-5.59-.77-8.32zm-1.94 16.28c-.48 2.62-1.2 5.18-2.1 7.65-1.81 4.96-4.35 9.55-7.31 13.77-.52.75-1.07 1.49-1.62 2.21-1.01 1.32-2.06 2.6-3.14 3.85a92.114 92.114 0 0 1-5.26 5.55c-1.83 1.77-3.72 3.46-5.66 5.08-.49.4-.97.81-1.46 1.21l-.07.06-1.41 1.12c-1 .77-2 1.54-3.02 2.28-4.07 2.98-8.31 5.69-12.66 8.18a156.23 156.23 0 0 1-6.62 3.56c-2.24 1.13-4.5 2.2-6.79 3.22-4.58 2.03-9.25 3.85-14.01 5.43-1.19.4-2.39.77-3.58 1.14l-1.81.53c-.6.18-1.21.34-1.81.51-2.42.66-4.86 1.27-7.32 1.8-4.92 1.05-9.93 1.83-15 2.2-2.54.18-5.09.27-7.67.22-2.58-.05-5.19-.25-7.8-.66-2.61-.41-5.22-1.05-7.78-1.96-.32-.11-.64-.24-.95-.36-.32-.13-.63-.25-.95-.38-.62-.28-1.25-.55-1.86-.87-1.23-.6-2.43-1.31-3.58-2.08l-.85-.59c-.28-.2-.55-.42-.83-.63l-.41-.32-.4-.34c-.26-.23-.53-.44-.79-.68-1.04-.93-2-1.92-2.91-2.96-.89-1.05-1.72-2.15-2.48-3.29-.19-.28-.37-.57-.55-.86l-.27-.43-.26-.44c-.17-.29-.34-.59-.51-.88l-.47-.89c-.61-1.2-1.18-2.41-1.67-3.64-.26-.61-.48-1.23-.71-1.85-.12-.31-.21-.62-.32-.93-.1-.31-.22-.62-.31-.93-.79-2.49-1.42-5-1.9-7.52-.49-2.51-.87-5.02-1.16-7.53-.29-2.5-.5-5-.66-7.49-.32-4.98-.44-9.93-.48-14.86-.05-4.92-.03-9.83-.02-14.71V68.28c0-3.23.03-6.47.11-9.73.04-1.69.1-3.39.17-5.09.24-4.98.63-10 1.51-15.05.05-.32.11-.63.17-.95l.18-.95c.14-.63.26-1.26.41-1.9.29-1.26.63-2.53 1.02-3.79.38-1.26.83-2.51 1.33-3.75.5-1.24 1.07-2.47 1.71-3.67 1.28-2.4 2.87-4.71 4.79-6.75l.36-.38c.12-.13.24-.25.37-.37l.76-.73c.52-.47 1.04-.94 1.6-1.36.54-.45 1.11-.85 1.68-1.25l.87-.57.22-.14.22-.13.45-.27.45-.27c.15-.09.3-.17.45-.25l.91-.49c.62-.3 1.23-.61 1.87-.87 1.25-.55 2.53-1 3.82-1.4 2.57-.78 5.17-1.32 7.76-1.66 2.59-.34 5.17-.5 7.73-.55 2.56-.04 5.12.04 7.66.22 5.08.37 10.08 1.16 15 2.2 2.46.53 4.9 1.13 7.32 1.8.6.17 1.21.33 1.81.51l1.81.53c1.2.37 2.4.74 3.58 1.14 4.76 1.57 9.43 3.4 14.01 5.43 2.29 1.02 4.55 2.1 6.79 3.22 2.23 1.14 4.44 2.32 6.62 3.56 4.35 2.49 8.59 5.2 12.66 8.18 1.02.73 2.01 1.5 3 2.26 0 0 .01 0 .02.01l1.48 1.18c.5.39.98.8 1.46 1.21 1.94 1.62 3.83 3.31 5.66 5.08a91.54 91.54 0 0 1 5.16 5.44c.03.04.07.07.1.11 1.67 1.93 3.28 3.94 4.76 6.06 2.96 4.22 5.51 8.82 7.31 13.77.9 2.48 1.62 5.04 2.1 7.65.48 2.62.74 5.29.74 7.96s-.26 5.34-.74 7.96z" style="fill:url(#c)"/><path d="M102.03 136.7c-.58-.05-1.16-.12-1.74-.22-1.31-.23-2.62-.57-3.9-1.06-1.27-.5-2.5-1.15-3.65-1.91-1.14-.78-2.18-1.68-3.12-2.66l-.67-.76c-.11-.13-.23-.25-.33-.38l-.3-.4c-.2-.27-.41-.53-.6-.8l-.54-.82c-.09-.14-.18-.27-.27-.41l-.24-.42-.48-.84c-.14-.28-.28-.57-.42-.86-.14-.29-.29-.57-.4-.86l-.37-.87c-.06-.14-.12-.29-.18-.43l-.16-.44c-.21-.58-.43-1.17-.59-1.75-.72-2.34-1.19-4.69-1.52-7.03l-.22-1.75-.15-1.74-.04-.44-.03-.43-.05-.87-.05-.87c-.02-.29-.02-.58-.03-.86l-.08-3.31-.04-1.59-.1-1.58c-.03-.53-.06-1.05-.1-1.58l-.15-1.57-.07-.79-.04-.39-.05-.39-.21-1.56-.1-.78c-.03-.26-.08-.52-.13-.78l-.26-1.55c-.05-.26-.08-.52-.14-.77l-.16-.77-.32-1.54c-.11-.51-.25-1.01-.37-1.52l-.19-.76c-.06-.25-.12-.51-.2-.76l-.43-1.5c-.07-.25-.14-.5-.22-.75l-.25-.74-.49-1.48c-.17-.49-.36-.97-.54-1.46-.35-.98-.78-1.92-1.17-2.88l-.15-.36-.17-.35-.33-.7-.33-.7c-.06-.12-.11-.23-.17-.35l-.18-.34-.72-1.37c-.06-.11-.12-.23-.18-.34l-.19-.33-.39-.67c-.5-.9-1.07-1.75-1.62-2.63-.28-.43-.58-.84-.87-1.27l-.44-.63-.47-.61a43.17 43.17 0 0 0-3.13-3.75c-.28-.31-.57-.61-.85-.91-1.41-1.48-2.94-2.83-4.53-4.09-.5-.41-1.02-.79-1.54-1.17-.3-.22-.6-.43-.9-.65l-.82-.54c-.12-.09-.25-.17-.37-.26h-.01l-.08-.04c-.21-.14-.43-.27-.65-.4l-.65-.39a44.26 44.26 0 0 0-5.43-2.7c-1.87-.76-3.79-1.38-5.74-1.84-3.9-.93-7.93-1.25-11.82-.81-3.89.43-7.65 1.65-10.82 3.67a20.44 20.44 0 0 0-4.26 3.59 20.036 20.036 0 0 0-3.1 4.61c-.12.25-.23.49-.34.75-.65 1.46-1.13 3.01-1.46 4.62-.39 1.88-.57 3.83-.58 5.8v12.1c0 4.9-.02 9.77.03 14.62s.16 9.68.47 14.46c.15 2.39.36 4.76.63 7.11.28 2.35.62 4.68 1.07 6.96.89 4.57 2.21 8.99 4.23 12.9l.39.73c.13.24.27.47.41.71l.2.35.22.34c.15.23.29.46.44.68.6.9 1.25 1.75 1.93 2.56.7.8 1.44 1.56 2.22 2.26.2.18.4.34.6.51l.3.26.31.24.63.48.65.45c.88.58 1.79 1.13 2.76 1.6.47.25.97.45 1.46.68.25.11.5.2.75.3.25.1.5.2.76.29 2.05.73 4.2 1.27 6.42 1.61 2.22.35 4.5.52 6.8.57 2.3.05 4.65-.03 6.98-.2 4.68-.34 9.36-1.08 13.99-2.06 2.32-.5 4.62-1.07 6.92-1.7.57-.16 1.15-.31 1.72-.48l1.71-.5c1.14-.35 2.27-.7 3.4-1.08 4.52-1.5 8.97-3.23 13.33-5.16 2.18-.97 4.33-1.99 6.46-3.06l1.35-.69c1.24-.65 2.47-1.31 3.69-1.99-.65.05-1.3.07-1.96.08-.71 0-1.43-.04-2.15-.1zm-8.19 3.97c-4.3 1.91-8.69 3.62-13.15 5.09-1.11.38-2.23.72-3.35 1.07l-1.69.5c-.56.17-1.13.32-1.69.48-2.26.62-4.53 1.18-6.81 1.67-4.56.97-9.16 1.69-13.73 2.02-.57.04-1.14.07-1.71.11-.57.03-1.14.05-1.71.07-1.13.03-2.27.04-3.38.02-2.23-.05-4.42-.22-6.54-.55a33.38 33.38 0 0 1-6.06-1.52c-.24-.08-.47-.18-.71-.27-.23-.09-.47-.18-.7-.28-.45-.21-.92-.4-1.35-.63-.89-.43-1.73-.94-2.54-1.47l-.6-.41c-.2-.14-.38-.29-.58-.44l-.29-.22-.28-.23c-.18-.16-.37-.31-.55-.47a23.6 23.6 0 0 1-2.04-2.08c-.63-.75-1.23-1.54-1.79-2.37-.14-.21-.27-.43-.41-.64l-.2-.32-.19-.33c-.13-.22-.26-.44-.38-.66l-.36-.68c-1.9-3.68-3.17-7.92-4.04-12.37-.43-2.23-.78-4.5-1.05-6.81-.27-2.31-.47-4.65-.62-7.01-.3-4.72-.42-9.52-.47-14.35-.05-4.83-.02-9.7-.02-14.6v-12.1c.01-1.86.18-3.67.54-5.4.36-1.73.9-3.38 1.65-4.9 1.48-3.04 3.76-5.57 6.65-7.4 2.88-1.84 6.34-2.97 9.98-3.37 3.64-.41 7.45-.11 11.14.77 1.85.44 3.68 1.03 5.45 1.75 1.78.73 3.51 1.59 5.17 2.57l.62.37c.21.12.42.24.62.38l.39.26c.57.4 1.14.8 1.71 1.18.49.35.98.71 1.45 1.1 1.52 1.21 2.99 2.5 4.34 3.92 1.35 1.41 2.65 2.89 3.82 4.47l.45.59.42.61c.28.41.57.81.84 1.22.52.84 1.08 1.66 1.56 2.53l.37.64.19.32c.06.11.12.22.17.33l.69 1.32.17.33c.06.11.11.23.16.34l.32.68.32.68.16.34c.05.11.1.23.15.34.38.92.8 1.83 1.13 2.78.17.47.36.94.53 1.41l.48 1.43.24.72.21.73.42 1.46c.07.24.13.49.19.73l.18.74c.12.49.25.98.36 1.48l.31 1.49.16.75c.06.25.09.5.13.75l.26 1.51c.04.25.09.5.12.76l.1.76.2 1.52.05.38.04.38.07.77.15 1.54c.04.51.06 1.03.1 1.54l.09 1.54.04 1.55.08 3.32c0 .3 0 .59.03.89l.05.89.05.89c0 .15.01.3.03.45l.04.45.16 1.8.22 1.81c.34 2.42.83 4.87 1.59 7.35.17.62.41 1.24.63 1.86l.17.46c.06.15.13.31.19.46l.39.93c.12.31.29.62.43.92.15.31.3.61.46.92l.52.91.26.45c.09.15.19.3.29.45l.59.89c.2.29.43.58.65.87l.33.43c.11.14.24.28.36.42l.73.83c1.04 1.07 2.18 2.08 3.45 2.94 1.27.85 2.64 1.56 4.04 2.12 1.1.42 2.21.74 3.33.98-1.71.84-3.43 1.65-5.17 2.43z" style="fill:url(#d)"/><path d="M15.56 47.6c.99-.84 2.04-1.62 3.14-2.31 2.12-1.35 4.41-2.41 6.75-3.2 2.35-.79 4.76-1.3 7.19-1.57 4.85-.55 9.72-.14 14.37.97 2.33.56 4.6 1.29 6.81 2.19 2.2.91 4.33 1.97 6.38 3.17l.76.46c.25.15.51.3.76.47l.68.45c.57.41 1.15.81 1.74 1.19 2.6 1.71 5.4 3.2 8.29 4.52.22.1.43.2.65.29 3.87 1.72 7.91 3.15 12.03 4.32 4.12 1.17 8.32 2.1 12.56 2.78 4.24.68 8.51 1.11 12.76 1.23 2.12.06 4.24.04 6.33-.08s4.16-.35 6.15-.72c1-.18 1.97-.41 2.92-.67.94-.27 1.85-.58 2.69-.93.42-.18.82-.37 1.2-.58.38-.21.74-.42 1.06-.65.32-.23.62-.46.88-.7.26-.24.47-.49.65-.73.36-.49.56-.95.65-1.48.05-.27.06-.55.05-.86a6.31 6.31 0 0 0-.14-1c-.07-.35-.2-.72-.33-1.1-.08-.19-.15-.38-.24-.58l-.13-.29-.15-.29c-.39-.79-.89-1.58-1.44-2.37-1.11-1.58-2.47-3.11-3.93-4.58-1.46-1.47-3.04-2.88-4.66-4.25-.94-.72-1.66-1.28-2.62-1.97-3.82-2.8-7.83-5.36-11.96-7.73-2.07-1.18-4.17-2.3-6.29-3.38-2.13-1.07-4.28-2.09-6.46-3.06-4.36-1.93-8.81-3.67-13.33-5.16-1.13-.38-2.27-.73-3.4-1.08l-1.71-.5c-.57-.17-1.15-.32-1.72-.48-2.29-.63-4.6-1.2-6.92-1.7-4.64-.99-9.32-1.72-13.99-2.06-2.34-.17-4.67-.24-6.99-.2-2.33.04-4.63.19-6.89.48-2.26.3-4.46.76-6.56 1.4-1.05.33-2.08.69-3.06 1.13-.5.2-.97.45-1.46.68l-.7.38c-.12.06-.24.12-.35.19l-.34.2-.34.2-.17.1-.16.11-.66.43c-.42.31-.86.6-1.26.94-.42.32-.8.67-1.19 1.02l-.56.54c-.1.09-.19.18-.27.28l-.27.29c-1.43 1.52-2.64 3.28-3.66 5.18-.5.96-.97 1.95-1.38 2.97-.41 1.03-.79 2.08-1.11 3.16-.33 1.08-.63 2.18-.88 3.29-.14.56-.25 1.12-.37 1.69-.06.28-.11.57-.16.85s-.11.57-.16.86c-.4 2.28-.69 4.6-.92 6.94-.09.99-.18 1.99-.25 2.99.68-.71 1.39-1.39 2.14-2.02zm.97-7.57c.78-4.44 1.97-8.68 3.87-12.23.95-1.77 2.06-3.38 3.36-4.76l.24-.26c.08-.09.16-.17.25-.25l.51-.49c.36-.31.7-.64 1.08-.92.36-.31.76-.57 1.14-.86l.6-.4.15-.1.16-.09.31-.19.31-.19c.1-.06.21-.12.32-.17l.65-.35c.45-.21.88-.44 1.35-.63.91-.41 1.88-.74 2.86-1.05 1.98-.6 4.08-1.04 6.24-1.33 2.17-.28 4.4-.43 6.66-.47 1.14-.02 2.26-.01 3.4.02.57.02 1.14.04 1.71.07.57.04 1.14.07 1.71.11 4.57.34 9.17 1.05 13.73 2.02 2.28.49 4.55 1.05 6.81 1.67.56.16 1.13.31 1.69.48l1.69.5c1.12.35 2.24.69 3.35 1.07 4.46 1.47 8.85 3.19 13.15 5.09 2.15.96 4.27 1.97 6.37 3.02 2.1 1.06 4.16 2.18 6.2 3.34 4.07 2.33 8.02 4.86 11.78 7.61.86.62 1.69 1.26 2.53 1.9 1.59 1.34 3.12 2.71 4.52 4.12 1.4 1.41 2.69 2.88 3.72 4.33.51.72.96 1.44 1.29 2.12l.13.25.11.25c.08.17.13.32.2.48.03.08.05.15.08.22l.04.11.03.11.06.21c.01.07.03.13.05.19.05.25.09.47.1.65 0 .18 0 .32-.03.43-.04.23-.1.38-.3.66-.1.13-.23.29-.41.45-.18.17-.4.34-.65.52-.26.18-.56.36-.87.53-.32.17-.68.34-1.05.5-.75.32-1.58.6-2.45.85-.88.24-1.79.45-2.74.63-1.89.35-3.88.57-5.91.69-2.03.12-4.09.14-6.16.08-4.15-.12-8.34-.54-12.5-1.21-4.16-.67-8.29-1.58-12.33-2.73-4.04-1.15-8-2.55-11.77-4.22-3.03-1.35-5.96-2.89-8.63-4.64-.31-.22-.62-.45-.94-.67l-.8-.52c-.05-.04-.11-.08-.16-.11s-.58-.38-.58-.38c-.25-.17-.52-.33-.78-.49l-.79-.47a52.416 52.416 0 0 0-6.63-3.29c-2.29-.94-4.67-1.7-7.09-2.28-4.85-1.16-9.94-1.58-15.05-1.01-2.55.29-5.1.83-7.59 1.66s-4.92 1.96-7.19 3.41c-.61.39-1.21.81-1.8 1.24.19-1.63.41-3.25.69-4.83z" style="fill:url(#e)"/></g></svg>